<svg width="312" height="308" viewBox="0 0 312 308" fill="none" xmlns="http://www.w3.org/2000/svg">
<rect x="1" y="1" width="310" height="306" rx="7" fill="white"/>
<path d="M31 34L25 28L31 22" stroke="black" stroke-width="2" stroke-linecap="round" stroke-linejoin="round"/>
<path d="M132.902 28.5576C132.902 30.6846 132.375 32.3193 131.32 33.4619C130.266 34.6045 128.754 35.1758 126.785 35.1758C124.816 35.1758 123.305 34.6045 122.25 33.4619C121.195 32.3193 120.668 30.6787 120.668 28.54C120.668 26.4014 121.195 24.7695 122.25 23.6445C123.311 22.5137 124.828 21.9482 126.803 21.9482C128.777 21.9482 130.286 22.5166 131.329 23.6533C132.378 24.79 132.902 26.4248 132.902 28.5576ZM123.524 28.5576C123.524 29.9932 123.797 31.0742 124.342 31.8008C124.887 32.5273 125.701 32.8906 126.785 32.8906C128.959 32.8906 130.046 31.4463 130.046 28.5576C130.046 25.6631 128.965 24.2158 126.803 24.2158C125.719 24.2158 124.901 24.582 124.351 25.3145C123.8 26.041 123.524 27.1221 123.524 28.5576ZM139.345 35.1758C136.286 35.1758 134.757 33.4971 134.757 30.1396C134.757 28.4697 135.173 27.1953 136.005 26.3164C136.837 25.4316 138.029 24.9893 139.582 24.9893C140.719 24.9893 141.738 25.2119 142.641 25.6572L141.85 27.7314C141.428 27.5615 141.035 27.4238 140.672 27.3184C140.309 27.207 139.945 27.1514 139.582 27.1514C138.188 27.1514 137.49 28.1416 137.49 30.1221C137.49 32.0439 138.188 33.0049 139.582 33.0049C140.098 33.0049 140.575 32.9375 141.015 32.8027C141.454 32.6621 141.894 32.4453 142.333 32.1523V34.4463C141.899 34.7217 141.46 34.9121 141.015 35.0176C140.575 35.123 140.019 35.1758 139.345 35.1758ZM148.758 33.04C149.227 33.04 149.789 32.9375 150.445 32.7324V34.7275C149.777 35.0264 148.957 35.1758 147.984 35.1758C146.912 35.1758 146.13 34.9062 145.638 34.3672C145.151 33.8223 144.908 33.0078 144.908 31.9238V27.1865H143.625V26.0527L145.102 25.1562L145.875 23.082H147.589V25.1738H150.34V27.1865H147.589V31.9238C147.589 32.3047 147.694 32.5859 147.905 32.7676C148.122 32.9492 148.406 33.04 148.758 33.04ZM154.576 30.0693C154.576 31.042 154.734 31.7773 155.051 32.2754C155.373 32.7734 155.895 33.0225 156.615 33.0225C157.33 33.0225 157.843 32.7764 158.153 32.2842C158.47 31.7861 158.628 31.0479 158.628 30.0693C158.628 29.0967 158.47 28.3672 158.153 27.8809C157.837 27.3945 157.318 27.1514 156.598 27.1514C155.883 27.1514 155.367 27.3945 155.051 27.8809C154.734 28.3613 154.576 29.0908 154.576 30.0693ZM161.37 30.0693C161.37 31.6689 160.948 32.9199 160.104 33.8223C159.261 34.7246 158.086 35.1758 156.58 35.1758C155.637 35.1758 154.805 34.9707 154.084 34.5605C153.363 34.1445 152.81 33.5498 152.423 32.7764C152.036 32.0029 151.843 31.1006 151.843 30.0693C151.843 28.4639 152.262 27.2158 153.1 26.3252C153.938 25.4346 155.115 24.9893 156.633 24.9893C157.576 24.9893 158.408 25.1943 159.129 25.6045C159.85 26.0146 160.403 26.6035 160.79 27.3711C161.177 28.1387 161.37 29.0381 161.37 30.0693ZM169.052 24.9893C170.212 24.9893 171.12 25.4434 171.776 26.3516C172.433 27.2539 172.761 28.4932 172.761 30.0693C172.761 31.6924 172.421 32.9492 171.741 33.8398C171.067 34.7305 170.147 35.1758 168.981 35.1758C167.827 35.1758 166.922 34.7568 166.266 33.9189H166.081L165.633 35H163.585V21.3242H166.266V24.5059C166.266 24.9102 166.23 25.5576 166.16 26.4482H166.266C166.893 25.4756 167.821 24.9893 169.052 24.9893ZM168.19 27.1338C167.528 27.1338 167.045 27.3389 166.74 27.749C166.436 28.1533 166.277 28.8242 166.266 29.7617V30.0518C166.266 31.1064 166.421 31.8623 166.731 32.3193C167.048 32.7764 167.546 33.0049 168.226 33.0049C168.776 33.0049 169.213 32.7529 169.535 32.249C169.863 31.7393 170.027 31.001 170.027 30.0342C170.027 29.0674 169.863 28.3438 169.535 27.8633C169.207 27.377 168.759 27.1338 168.19 27.1338ZM179.045 26.8965C178.477 26.8965 178.031 27.0781 177.709 27.4414C177.387 27.7988 177.202 28.3086 177.155 28.9707H180.917C180.905 28.3086 180.732 27.7988 180.398 27.4414C180.064 27.0781 179.613 26.8965 179.045 26.8965ZM179.423 35.1758C177.841 35.1758 176.604 34.7393 175.714 33.8662C174.823 32.9932 174.378 31.7568 174.378 30.1572C174.378 28.5107 174.788 27.2393 175.608 26.3428C176.435 25.4404 177.574 24.9893 179.027 24.9893C180.416 24.9893 181.497 25.3848 182.271 26.1758C183.044 26.9668 183.431 28.0596 183.431 29.4541V30.7549H177.094C177.123 31.5166 177.349 32.1113 177.771 32.5391C178.192 32.9668 178.784 33.1807 179.546 33.1807C180.138 33.1807 180.697 33.1191 181.225 32.9961C181.752 32.873 182.303 32.6768 182.877 32.4072V34.4814C182.408 34.7158 181.907 34.8887 181.374 35C180.841 35.1172 180.19 35.1758 179.423 35.1758ZM191.095 24.9893C191.458 24.9893 191.76 25.0156 192 25.0684L191.798 27.582C191.581 27.5234 191.317 27.4941 191.007 27.4941C190.151 27.4941 189.483 27.7139 189.003 28.1533C188.528 28.5928 188.291 29.208 188.291 29.999V35H185.61V25.1738H187.641L188.036 26.8262H188.168C188.473 26.2754 188.883 25.833 189.398 25.499C189.92 25.1592 190.485 24.9893 191.095 24.9893Z" fill="black"/>
<path d="M281 34L287 28L281 22" stroke="black" stroke-width="2" stroke-linecap="round" stroke-linejoin="round"/>
<path d="M26.0807 78.6211C26.0807 79.3945 25.8014 80.0039 25.2428 80.4492C24.6882 80.8945 23.9147 81.1172 22.9225 81.1172C22.0085 81.1172 21.1999 80.9453 20.4967 80.6016V78.9141C21.0749 79.1719 21.5632 79.3535 21.9616 79.459C22.3639 79.5645 22.7311 79.6172 23.0632 79.6172C23.4616 79.6172 23.7663 79.541 23.9772 79.3887C24.1921 79.2363 24.2995 79.0098 24.2995 78.709C24.2995 78.541 24.2526 78.3926 24.1589 78.2637C24.0651 78.1309 23.9264 78.0039 23.7428 77.8828C23.5632 77.7617 23.194 77.5684 22.6354 77.3027C22.112 77.0566 21.7194 76.8203 21.4577 76.5938C21.196 76.3672 20.987 76.1035 20.8307 75.8027C20.6745 75.502 20.5964 75.1504 20.5964 74.748C20.5964 73.9902 20.8522 73.3945 21.3639 72.9609C21.8796 72.5273 22.5905 72.3105 23.4967 72.3105C23.9421 72.3105 24.3659 72.3633 24.7682 72.4688C25.1745 72.5742 25.5983 72.7227 26.0397 72.9141L25.4538 74.3262C24.9967 74.1387 24.6178 74.0078 24.3171 73.9336C24.0202 73.8594 23.7272 73.8223 23.4382 73.8223C23.0944 73.8223 22.8307 73.9023 22.6471 74.0625C22.4635 74.2227 22.3717 74.4316 22.3717 74.6895C22.3717 74.8496 22.4089 74.9902 22.4831 75.1113C22.5573 75.2285 22.6745 75.3438 22.8346 75.457C22.9987 75.5664 23.3835 75.7656 23.9889 76.0547C24.7897 76.4375 25.3385 76.8223 25.6354 77.209C25.9323 77.5918 26.0807 78.0625 26.0807 78.6211ZM34.6061 72.4336V77.9766C34.6061 78.6094 34.4635 79.1641 34.1784 79.6406C33.8971 80.1172 33.4889 80.4824 32.9538 80.7363C32.4186 80.9902 31.7858 81.1172 31.0553 81.1172C29.9538 81.1172 29.0983 80.8359 28.4889 80.2734C27.8796 79.707 27.5749 78.9336 27.5749 77.9531V72.4336H29.3854V77.6777C29.3854 78.3379 29.5182 78.8223 29.7839 79.1309C30.0495 79.4395 30.4889 79.5938 31.1022 79.5938C31.696 79.5938 32.1257 79.4395 32.3913 79.1309C32.6608 78.8184 32.7956 78.3301 32.7956 77.666V72.4336H34.6061ZM44.3034 81H41.9948L38.2682 74.5195H38.2155C38.2897 75.6641 38.3268 76.4805 38.3268 76.9688V81H36.7038V72.4336H38.9948L42.7155 78.8496H42.7565C42.6979 77.7363 42.6686 76.9492 42.6686 76.4883V72.4336H44.3034V81Z" fill="#707070"/>
<path d="M62.7219 81L60.6594 74.2793H60.6067C60.6809 75.6465 60.718 76.5586 60.718 77.0156V81H59.095V72.4336H61.5676L63.595 78.9844H63.6301L65.7805 72.4336H68.2532V81H66.5598V76.9453C66.5598 76.7539 66.5618 76.5332 66.5657 76.2832C66.5735 76.0332 66.6008 75.3691 66.6477 74.291H66.595L64.386 81H62.7219ZM78.1907 76.7051C78.1907 78.123 77.8391 79.2129 77.136 79.9746C76.4329 80.7363 75.425 81.1172 74.1125 81.1172C72.8 81.1172 71.7922 80.7363 71.0891 79.9746C70.386 79.2129 70.0344 78.1191 70.0344 76.6934C70.0344 75.2676 70.386 74.1797 71.0891 73.4297C71.7961 72.6758 72.8079 72.2988 74.1243 72.2988C75.4407 72.2988 76.4465 72.6777 77.1418 73.4355C77.8411 74.1934 78.1907 75.2832 78.1907 76.7051ZM71.9387 76.7051C71.9387 77.6621 72.1204 78.3828 72.4836 78.8672C72.8469 79.3516 73.3899 79.5938 74.1125 79.5938C75.5618 79.5938 76.2864 78.6309 76.2864 76.7051C76.2864 74.7754 75.5657 73.8105 74.1243 73.8105C73.4016 73.8105 72.8567 74.0547 72.4895 74.543C72.1223 75.0273 71.9387 75.748 71.9387 76.7051ZM87.5657 81H85.2571L81.5305 74.5195H81.4778C81.552 75.6641 81.5891 76.4805 81.5891 76.9688V81H79.9661V72.4336H82.2571L85.9778 78.8496H86.0188C85.9602 77.7363 85.9309 76.9492 85.9309 76.4883V72.4336H87.5657V81Z" fill="#707070"/>
<path d="M107.01 81H105.193V73.9453H102.867V72.4336H109.336V73.9453H107.01V81ZM117.627 72.4336V77.9766C117.627 78.6094 117.484 79.1641 117.199 79.6406C116.918 80.1172 116.51 80.4824 115.975 80.7363C115.439 80.9902 114.807 81.1172 114.076 81.1172C112.975 81.1172 112.119 80.8359 111.51 80.2734C110.9 79.707 110.596 78.9336 110.596 77.9531V72.4336H112.406V77.6777C112.406 78.3379 112.539 78.8223 112.805 79.1309C113.07 79.4395 113.51 79.5938 114.123 79.5938C114.717 79.5938 115.146 79.4395 115.412 79.1309C115.682 78.8184 115.816 78.3301 115.816 77.666V72.4336H117.627ZM124.658 81H119.725V72.4336H124.658V73.9219H121.541V75.8027H124.441V77.291H121.541V79.5H124.658V81Z" fill="#707070"/>
<path d="M151.15 81H149.081L147.921 76.5C147.878 76.3398 147.804 76.0098 147.699 75.5098C147.597 75.0059 147.538 74.668 147.523 74.4961C147.499 74.707 147.441 75.0469 147.347 75.5156C147.253 75.9805 147.181 76.3125 147.13 76.5117L145.976 81H143.913L141.728 72.4336H143.515L144.611 77.1094C144.802 77.9727 144.941 78.7207 145.027 79.3535C145.05 79.1309 145.103 78.7871 145.185 78.3223C145.271 77.8535 145.351 77.4902 145.425 77.2324L146.673 72.4336H148.39L149.638 77.2324C149.693 77.4473 149.761 77.7754 149.843 78.2168C149.925 78.6582 149.988 79.0371 150.031 79.3535C150.07 79.0488 150.132 78.6699 150.218 78.2168C150.304 77.7598 150.382 77.3906 150.453 77.1094L151.542 72.4336H153.33L151.15 81ZM159.341 81H154.408V72.4336H159.341V73.9219H156.224V75.8027H159.124V77.291H156.224V79.5H159.341V81ZM168.242 76.6348C168.242 78.0449 167.839 79.125 167.035 79.875C166.234 80.625 165.076 81 163.56 81H161.134V72.4336H163.824C165.222 72.4336 166.308 72.8027 167.081 73.541C167.855 74.2793 168.242 75.3105 168.242 76.6348ZM166.355 76.6816C166.355 74.8418 165.542 73.9219 163.917 73.9219H162.951V79.5H163.73C165.48 79.5 166.355 78.5605 166.355 76.6816Z" fill="#707070"/>
<path d="M188.446 81H186.63V73.9453H184.303V72.4336H190.772V73.9453H188.446V81ZM199.11 81H197.299V77.3027H193.907V81H192.09V72.4336H193.907V75.791H197.299V72.4336H199.11V81ZM208.251 72.4336V77.9766C208.251 78.6094 208.108 79.1641 207.823 79.6406C207.542 80.1172 207.133 80.4824 206.598 80.7363C206.063 80.9902 205.43 81.1172 204.7 81.1172C203.598 81.1172 202.743 80.8359 202.133 80.2734C201.524 79.707 201.219 78.9336 201.219 77.9531V72.4336H203.03V77.6777C203.03 78.3379 203.163 78.8223 203.428 79.1309C203.694 79.4395 204.133 79.5938 204.747 79.5938C205.34 79.5938 205.77 79.4395 206.036 79.1309C206.305 78.8184 206.44 78.3301 206.44 77.666V72.4336H208.251Z" fill="#707070"/>
<path d="M231.625 81H229.838V72.4336H234.748V73.9219H231.625V76.1309H234.531V77.6133H231.625V81ZM238.24 76.2363H238.826C239.4 76.2363 239.824 76.1406 240.098 75.9492C240.371 75.7578 240.508 75.457 240.508 75.0469C240.508 74.6406 240.367 74.3516 240.086 74.1797C239.809 74.0078 239.377 73.9219 238.791 73.9219H238.24V76.2363ZM238.24 77.7129V81H236.424V72.4336H238.92C240.084 72.4336 240.945 72.6465 241.504 73.0723C242.062 73.4941 242.342 74.1367 242.342 75C242.342 75.5039 242.203 75.9531 241.926 76.3477C241.648 76.7383 241.256 77.0449 240.748 77.2676C242.037 79.1934 242.877 80.4375 243.267 81H241.252L239.207 77.7129H238.24ZM244.346 81V72.4336H246.162V81H244.346Z" fill="#707070"/>
<path d="M274.546 78.6211C274.546 79.3945 274.267 80.0039 273.708 80.4492C273.154 80.8945 272.38 81.1172 271.388 81.1172C270.474 81.1172 269.665 80.9453 268.962 80.6016V78.9141C269.54 79.1719 270.029 79.3535 270.427 79.459C270.83 79.5645 271.197 79.6172 271.529 79.6172C271.927 79.6172 272.232 79.541 272.443 79.3887C272.658 79.2363 272.765 79.0098 272.765 78.709C272.765 78.541 272.718 78.3926 272.624 78.2637C272.531 78.1309 272.392 78.0039 272.208 77.8828C272.029 77.7617 271.66 77.5684 271.101 77.3027C270.578 77.0566 270.185 76.8203 269.923 76.5938C269.662 76.3672 269.453 76.1035 269.296 75.8027C269.14 75.502 269.062 75.1504 269.062 74.748C269.062 73.9902 269.318 73.3945 269.83 72.9609C270.345 72.5273 271.056 72.3105 271.962 72.3105C272.408 72.3105 272.831 72.3633 273.234 72.4688C273.64 72.5742 274.064 72.7227 274.505 72.9141L273.919 74.3262C273.462 74.1387 273.083 74.0078 272.783 73.9336C272.486 73.8594 272.193 73.8223 271.904 73.8223C271.56 73.8223 271.296 73.9023 271.113 74.0625C270.929 74.2227 270.837 74.4316 270.837 74.6895C270.837 74.8496 270.874 74.9902 270.949 75.1113C271.023 75.2285 271.14 75.3438 271.3 75.457C271.464 75.5664 271.849 75.7656 272.455 76.0547C273.255 76.4375 273.804 76.8223 274.101 77.209C274.398 77.5918 274.546 78.0625 274.546 78.6211ZM281.343 81L280.722 78.9609H277.599L276.978 81H275.021L278.044 72.3984H280.265L283.3 81H281.343ZM280.288 77.4375C279.714 75.5898 279.39 74.5449 279.316 74.3027C279.246 74.0605 279.195 73.8691 279.163 73.7285C279.035 74.2285 278.665 75.4648 278.056 77.4375H280.288ZM287.689 81H285.872V73.9453H283.546V72.4336H290.015V73.9453H287.689V81Z" fill="#707070"/>
<rect x="16" y="92" width="40" height="40" rx="8" fill="white"/>
<path d="M34.7031 109.266C34.7031 109.995 34.4974 110.591 34.0859 111.055C33.6797 111.518 33.1016 111.828 32.3516 111.984V112.047C33.2682 112.161 33.9479 112.453 34.3906 112.922C34.8333 113.391 35.0547 114.005 35.0547 114.766C35.0547 115.854 34.6771 116.693 33.9219 117.281C33.1667 117.865 32.0938 118.156 30.7031 118.156C30.099 118.156 29.5443 118.109 29.0391 118.016C28.5391 117.927 28.0521 117.768 27.5781 117.539V116.305C28.0729 116.549 28.599 116.737 29.1562 116.867C29.7188 116.992 30.25 117.055 30.75 117.055C32.724 117.055 33.7109 116.281 33.7109 114.734C33.7109 113.349 32.6224 112.656 30.4453 112.656H29.3203V111.539H30.4609C31.3516 111.539 32.0573 111.344 32.5781 110.953C33.099 110.557 33.3594 110.01 33.3594 109.312C33.3594 108.755 33.1667 108.318 32.7812 108C32.401 107.682 31.8828 107.523 31.2266 107.523C30.7266 107.523 30.2552 107.591 29.8125 107.727C29.3698 107.862 28.8646 108.112 28.2969 108.477L27.6406 107.602C28.1094 107.232 28.6484 106.943 29.2578 106.734C29.8724 106.521 30.5182 106.414 31.1953 106.414C32.3047 106.414 33.1667 106.669 33.7812 107.18C34.3958 107.685 34.7031 108.38 34.7031 109.266ZM44.3516 112.273C44.3516 114.247 44.0391 115.721 43.4141 116.695C42.7943 117.669 41.8438 118.156 40.5625 118.156C39.3333 118.156 38.3984 117.659 37.7578 116.664C37.1172 115.664 36.7969 114.201 36.7969 112.273C36.7969 110.284 37.1068 108.807 37.7266 107.844C38.3464 106.88 39.2917 106.398 40.5625 106.398C41.8021 106.398 42.7422 106.901 43.3828 107.906C44.0286 108.911 44.3516 110.367 44.3516 112.273ZM38.1094 112.273C38.1094 113.935 38.3047 115.146 38.6953 115.906C39.0859 116.661 39.7083 117.039 40.5625 117.039C41.4271 117.039 42.0521 116.656 42.4375 115.891C42.8281 115.12 43.0234 113.914 43.0234 112.273C43.0234 110.633 42.8281 109.432 42.4375 108.672C42.0521 107.906 41.4271 107.523 40.5625 107.523C39.7083 107.523 39.0859 107.901 38.6953 108.656C38.3047 109.406 38.1094 110.612 38.1094 112.273Z" fill="black"/>
<path d="M34.7031 109.266C34.7031 109.995 34.4974 110.591 34.0859 111.055C33.6797 111.518 33.1016 111.828 32.3516 111.984V112.047C33.2682 112.161 33.9479 112.453 34.3906 112.922C34.8333 113.391 35.0547 114.005 35.0547 114.766C35.0547 115.854 34.6771 116.693 33.9219 117.281C33.1667 117.865 32.0938 118.156 30.7031 118.156C30.099 118.156 29.5443 118.109 29.0391 118.016C28.5391 117.927 28.0521 117.768 27.5781 117.539V116.305C28.0729 116.549 28.599 116.737 29.1562 116.867C29.7188 116.992 30.25 117.055 30.75 117.055C32.724 117.055 33.7109 116.281 33.7109 114.734C33.7109 113.349 32.6224 112.656 30.4453 112.656H29.3203V111.539H30.4609C31.3516 111.539 32.0573 111.344 32.5781 110.953C33.099 110.557 33.3594 110.01 33.3594 109.312C33.3594 108.755 33.1667 108.318 32.7812 108C32.401 107.682 31.8828 107.523 31.2266 107.523C30.7266 107.523 30.2552 107.591 29.8125 107.727C29.3698 107.862 28.8646 108.112 28.2969 108.477L27.6406 107.602C28.1094 107.232 28.6484 106.943 29.2578 106.734C29.8724 106.521 30.5182 106.414 31.1953 106.414C32.3047 106.414 33.1667 106.669 33.7812 107.18C34.3958 107.685 34.7031 108.38 34.7031 109.266ZM44.3516 112.273C44.3516 114.247 44.0391 115.721 43.4141 116.695C42.7943 117.669 41.8438 118.156 40.5625 118.156C39.3333 118.156 38.3984 117.659 37.7578 116.664C37.1172 115.664 36.7969 114.201 36.7969 112.273C36.7969 110.284 37.1068 108.807 37.7266 107.844C38.3464 106.88 39.2917 106.398 40.5625 106.398C41.8021 106.398 42.7422 106.901 43.3828 107.906C44.0286 108.911 44.3516 110.367 44.3516 112.273ZM38.1094 112.273C38.1094 113.935 38.3047 115.146 38.6953 115.906C39.0859 116.661 39.7083 117.039 40.5625 117.039C41.4271 117.039 42.0521 116.656 42.4375 115.891C42.8281 115.12 43.0234 113.914 43.0234 112.273C43.0234 110.633 42.8281 109.432 42.4375 108.672C42.0521 107.906 41.4271 107.523 40.5625 107.523C39.7083 107.523 39.0859 107.901 38.6953 108.656C38.3047 109.406 38.1094 110.612 38.1094 112.273Z" fill="white" fill-opacity="0.72"/>
<rect x="56" y="92" width="40" height="40" rx="8" fill="white"/>
<path d="M77.0078 118H75.7422V109.859C75.7422 109.182 75.763 108.542 75.8047 107.938C75.6953 108.047 75.5729 108.161 75.4375 108.281C75.3021 108.401 74.6823 108.909 73.5781 109.805L72.8906 108.914L75.9141 106.578H77.0078V118Z" fill="black"/>
<rect x="96" y="92" width="40" height="40" rx="20" fill="#707070"/>
<path d="M112.361 118H119.702V116.75H114.293V116.659L116.906 113.864C118.906 111.722 119.497 110.722 119.497 109.432C119.497 107.636 118.043 106.205 115.997 106.205C113.957 106.205 112.406 107.591 112.406 109.636H113.747C113.747 108.312 114.605 107.432 115.952 107.432C117.213 107.432 118.179 108.205 118.179 109.432C118.179 110.506 117.548 111.301 116.202 112.773L112.361 116.977V118Z" fill="white"/>
<rect x="136" y="92" width="40" height="40" rx="8" fill="white"/>
<path d="M159.281 109.266C159.281 109.995 159.076 110.591 158.664 111.055C158.258 111.518 157.68 111.828 156.93 111.984V112.047C157.846 112.161 158.526 112.453 158.969 112.922C159.411 113.391 159.633 114.005 159.633 114.766C159.633 115.854 159.255 116.693 158.5 117.281C157.745 117.865 156.672 118.156 155.281 118.156C154.677 118.156 154.122 118.109 153.617 118.016C153.117 117.927 152.63 117.768 152.156 117.539V116.305C152.651 116.549 153.177 116.737 153.734 116.867C154.297 116.992 154.828 117.055 155.328 117.055C157.302 117.055 158.289 116.281 158.289 114.734C158.289 113.349 157.201 112.656 155.023 112.656H153.898V111.539H155.039C155.93 111.539 156.635 111.344 157.156 110.953C157.677 110.557 157.938 110.01 157.938 109.312C157.938 108.755 157.745 108.318 157.359 108C156.979 107.682 156.461 107.523 155.805 107.523C155.305 107.523 154.833 107.591 154.391 107.727C153.948 107.862 153.443 108.112 152.875 108.477L152.219 107.602C152.688 107.232 153.227 106.943 153.836 106.734C154.451 106.521 155.096 106.414 155.773 106.414C156.883 106.414 157.745 106.669 158.359 107.18C158.974 107.685 159.281 108.38 159.281 109.266Z" fill="black"/>
<rect x="176" y="92" width="40" height="40" rx="8" fill="white"/>
<path d="M200.25 115.375H198.555V118H197.312V115.375H191.758V114.242L197.18 106.516H198.555V114.195H200.25V115.375ZM197.312 114.195V110.398C197.312 109.654 197.339 108.812 197.391 107.875H197.328C197.078 108.375 196.844 108.789 196.625 109.117L193.055 114.195H197.312Z" fill="black"/>
<rect x="216" y="92" width="40" height="40" rx="8" fill="white"/>
<path d="M235.773 111.023C236.977 111.023 237.922 111.323 238.609 111.922C239.302 112.516 239.648 113.331 239.648 114.367C239.648 115.549 239.271 116.477 238.516 117.148C237.766 117.82 236.729 118.156 235.406 118.156C234.12 118.156 233.138 117.951 232.461 117.539V116.289C232.826 116.523 233.279 116.708 233.82 116.844C234.362 116.974 234.896 117.039 235.422 117.039C236.339 117.039 237.049 116.823 237.555 116.391C238.065 115.958 238.32 115.333 238.32 114.516C238.32 112.922 237.344 112.125 235.391 112.125C234.896 112.125 234.234 112.201 233.406 112.352L232.734 111.922L233.164 106.578H238.844V107.773H234.273L233.984 111.203C234.583 111.083 235.18 111.023 235.773 111.023Z" fill="black"/>
<rect x="256" y="92" width="40" height="40" rx="8" fill="white"/>
<path d="M272.336 113.117C272.336 110.872 272.771 109.195 273.641 108.086C274.516 106.971 275.807 106.414 277.516 106.414C278.104 106.414 278.568 106.464 278.906 106.562V107.68C278.505 107.549 278.047 107.484 277.531 107.484C276.307 107.484 275.372 107.867 274.727 108.633C274.081 109.393 273.727 110.591 273.664 112.227H273.758C274.331 111.331 275.237 110.883 276.477 110.883C277.503 110.883 278.31 111.193 278.898 111.812C279.492 112.432 279.789 113.273 279.789 114.336C279.789 115.523 279.464 116.458 278.812 117.141C278.167 117.818 277.292 118.156 276.188 118.156C275.005 118.156 274.068 117.714 273.375 116.828C272.682 115.938 272.336 114.701 272.336 113.117ZM276.172 117.055C276.911 117.055 277.484 116.823 277.891 116.359C278.302 115.891 278.508 115.216 278.508 114.336C278.508 113.581 278.318 112.987 277.938 112.555C277.557 112.122 276.99 111.906 276.234 111.906C275.766 111.906 275.336 112.003 274.945 112.195C274.555 112.388 274.242 112.654 274.008 112.992C273.779 113.331 273.664 113.682 273.664 114.047C273.664 114.583 273.768 115.083 273.977 115.547C274.185 116.01 274.479 116.378 274.859 116.648C275.245 116.919 275.682 117.055 276.172 117.055Z" fill="black"/>
<rect x="16" y="132" width="40" height="40" rx="8" fill="white"/>
<path d="M33.6484 158L38.3828 147.773H32.1562V146.578H39.7578V147.617L35.0859 158H33.6484Z" fill="black"/>
<rect x="56" y="132" width="40" height="40" rx="8" fill="white"/>
<path d="M75.9844 146.414C77.026 146.414 77.8516 146.656 78.4609 147.141C79.0703 147.625 79.375 148.294 79.375 149.148C79.375 149.711 79.2005 150.224 78.8516 150.688C78.5026 151.151 77.9453 151.573 77.1797 151.953C78.1068 152.396 78.7656 152.862 79.1562 153.352C79.5469 153.836 79.7422 154.398 79.7422 155.039C79.7422 155.987 79.4115 156.745 78.75 157.312C78.0885 157.875 77.1823 158.156 76.0312 158.156C74.8125 158.156 73.875 157.891 73.2188 157.359C72.5625 156.823 72.2344 156.065 72.2344 155.086C72.2344 153.779 73.0312 152.76 74.625 152.031C73.9062 151.625 73.3906 151.188 73.0781 150.719C72.7656 150.245 72.6094 149.716 72.6094 149.133C72.6094 148.305 72.9141 147.646 73.5234 147.156C74.138 146.661 74.9583 146.414 75.9844 146.414ZM73.5156 155.117C73.5156 155.742 73.7318 156.229 74.1641 156.578C74.6016 156.927 75.2135 157.102 76 157.102C76.776 157.102 77.3802 156.919 77.8125 156.555C78.2448 156.19 78.4609 155.69 78.4609 155.055C78.4609 154.549 78.2578 154.102 77.8516 153.711C77.4453 153.315 76.737 152.932 75.7266 152.562C74.9505 152.896 74.388 153.266 74.0391 153.672C73.6901 154.073 73.5156 154.555 73.5156 155.117ZM75.9688 147.469C75.3177 147.469 74.8073 147.625 74.4375 147.938C74.0677 148.25 73.8828 148.667 73.8828 149.188C73.8828 149.667 74.0365 150.078 74.3438 150.422C74.651 150.766 75.2188 151.109 76.0469 151.453C76.7917 151.141 77.3177 150.805 77.625 150.445C77.9375 150.086 78.0938 149.667 78.0938 149.188C78.0938 148.661 77.9036 148.245 77.5234 147.938C77.1484 147.625 76.6302 147.469 75.9688 147.469Z" fill="black"/>
<rect x="96" y="132" width="40" height="40" rx="8" fill="white"/>
<path d="M119.711 151.453C119.711 155.922 117.982 158.156 114.523 158.156C113.919 158.156 113.44 158.104 113.086 158V156.883C113.503 157.018 113.977 157.086 114.508 157.086C115.758 157.086 116.701 156.701 117.336 155.93C117.977 155.154 118.326 153.966 118.383 152.367H118.289C118.003 152.799 117.622 153.13 117.148 153.359C116.674 153.583 116.141 153.695 115.547 153.695C114.536 153.695 113.734 153.393 113.141 152.789C112.547 152.185 112.25 151.341 112.25 150.258C112.25 149.07 112.581 148.133 113.242 147.445C113.909 146.758 114.784 146.414 115.867 146.414C116.643 146.414 117.32 146.615 117.898 147.016C118.482 147.411 118.93 147.992 119.242 148.758C119.555 149.518 119.711 150.417 119.711 151.453ZM115.867 147.523C115.122 147.523 114.547 147.763 114.141 148.242C113.734 148.721 113.531 149.388 113.531 150.242C113.531 150.992 113.719 151.583 114.094 152.016C114.469 152.443 115.039 152.656 115.805 152.656C116.279 152.656 116.714 152.56 117.109 152.367C117.51 152.174 117.826 151.911 118.055 151.578C118.284 151.245 118.398 150.896 118.398 150.531C118.398 149.984 118.292 149.479 118.078 149.016C117.865 148.552 117.565 148.188 117.18 147.922C116.799 147.656 116.362 147.523 115.867 147.523Z" fill="black"/>
<rect x="136" y="132" width="40" height="40" rx="8" fill="white"/>
<path d="M152.43 158H151.164V149.859C151.164 149.182 151.185 148.542 151.227 147.938C151.117 148.047 150.995 148.161 150.859 148.281C150.724 148.401 150.104 148.909 149 149.805L148.312 148.914L151.336 146.578H152.43V158ZM164.352 152.273C164.352 154.247 164.039 155.721 163.414 156.695C162.794 157.669 161.844 158.156 160.562 158.156C159.333 158.156 158.398 157.659 157.758 156.664C157.117 155.664 156.797 154.201 156.797 152.273C156.797 150.284 157.107 148.807 157.727 147.844C158.346 146.88 159.292 146.398 160.562 146.398C161.802 146.398 162.742 146.901 163.383 147.906C164.029 148.911 164.352 150.367 164.352 152.273ZM158.109 152.273C158.109 153.935 158.305 155.146 158.695 155.906C159.086 156.661 159.708 157.039 160.562 157.039C161.427 157.039 162.052 156.656 162.438 155.891C162.828 155.12 163.023 153.914 163.023 152.273C163.023 150.633 162.828 149.432 162.438 148.672C162.052 147.906 161.427 147.523 160.562 147.523C159.708 147.523 159.086 147.901 158.695 148.656C158.305 149.406 158.109 150.612 158.109 152.273Z" fill="black"/>
<rect x="176" y="132" width="40" height="40" rx="8" fill="white"/>
<path d="M192.43 158H191.164V149.859C191.164 149.182 191.185 148.542 191.227 147.938C191.117 148.047 190.995 148.161 190.859 148.281C190.724 148.401 190.104 148.909 189 149.805L188.312 148.914L191.336 146.578H192.43V158ZM201.586 158H200.32V149.859C200.32 149.182 200.341 148.542 200.383 147.938C200.273 148.047 200.151 148.161 200.016 148.281C199.88 148.401 199.26 148.909 198.156 149.805L197.469 148.914L200.492 146.578H201.586V158Z" fill="black"/>
<rect x="216" y="132" width="40" height="40" rx="8" fill="white"/>
<path d="M232.43 158H231.164V149.859C231.164 149.182 231.185 148.542 231.227 147.938C231.117 148.047 230.995 148.161 230.859 148.281C230.724 148.401 230.104 148.909 229 149.805L228.312 148.914L231.336 146.578H232.43V158ZM244.289 158H236.781V156.883L239.789 153.859C240.706 152.932 241.31 152.271 241.602 151.875C241.893 151.479 242.112 151.094 242.258 150.719C242.404 150.344 242.477 149.94 242.477 149.508C242.477 148.898 242.292 148.417 241.922 148.062C241.552 147.703 241.039 147.523 240.383 147.523C239.909 147.523 239.458 147.602 239.031 147.758C238.609 147.914 238.138 148.198 237.617 148.609L236.93 147.727C237.982 146.852 239.128 146.414 240.367 146.414C241.44 146.414 242.281 146.69 242.891 147.242C243.5 147.789 243.805 148.526 243.805 149.453C243.805 150.177 243.602 150.893 243.195 151.602C242.789 152.31 242.029 153.206 240.914 154.289L238.414 156.734V156.797H244.289V158Z" fill="black"/>
<rect x="256" y="132" width="40" height="40" rx="8" fill="white"/>
<path d="M272.43 158H271.164V149.859C271.164 149.182 271.185 148.542 271.227 147.938C271.117 148.047 270.995 148.161 270.859 148.281C270.724 148.401 270.104 148.909 269 149.805L268.312 148.914L271.336 146.578H272.43V158ZM283.859 149.266C283.859 149.995 283.654 150.591 283.242 151.055C282.836 151.518 282.258 151.828 281.508 151.984V152.047C282.424 152.161 283.104 152.453 283.547 152.922C283.99 153.391 284.211 154.005 284.211 154.766C284.211 155.854 283.833 156.693 283.078 157.281C282.323 157.865 281.25 158.156 279.859 158.156C279.255 158.156 278.701 158.109 278.195 158.016C277.695 157.927 277.208 157.768 276.734 157.539V156.305C277.229 156.549 277.755 156.737 278.312 156.867C278.875 156.992 279.406 157.055 279.906 157.055C281.88 157.055 282.867 156.281 282.867 154.734C282.867 153.349 281.779 152.656 279.602 152.656H278.477V151.539H279.617C280.508 151.539 281.214 151.344 281.734 150.953C282.255 150.557 282.516 150.01 282.516 149.312C282.516 148.755 282.323 148.318 281.938 148C281.557 147.682 281.039 147.523 280.383 147.523C279.883 147.523 279.411 147.591 278.969 147.727C278.526 147.862 278.021 148.112 277.453 148.477L276.797 147.602C277.266 147.232 277.805 146.943 278.414 146.734C279.029 146.521 279.674 146.414 280.352 146.414C281.461 146.414 282.323 146.669 282.938 147.18C283.552 147.685 283.859 148.38 283.859 149.266Z" fill="black"/>
<rect x="16" y="172" width="40" height="40" rx="8" fill="white"/>
<path d="M32.4297 198H31.1641V189.859C31.1641 189.182 31.1849 188.542 31.2266 187.938C31.1172 188.047 30.9948 188.161 30.8594 188.281C30.724 188.401 30.1042 188.909 29 189.805L28.3125 188.914L31.3359 186.578H32.4297V198ZM44.8281 195.375H43.1328V198H41.8906V195.375H36.3359V194.242L41.7578 186.516H43.1328V194.195H44.8281V195.375ZM41.8906 194.195V190.398C41.8906 189.654 41.9167 188.812 41.9688 187.875H41.9062C41.6562 188.375 41.4219 188.789 41.2031 189.117L37.6328 194.195H41.8906Z" fill="black"/>
<rect x="56" y="172" width="40" height="40" rx="8" fill="white"/>
<path d="M72.4297 198H71.1641V189.859C71.1641 189.182 71.1849 188.542 71.2266 187.938C71.1172 188.047 70.9948 188.161 70.8594 188.281C70.724 188.401 70.1042 188.909 69 189.805L68.3125 188.914L71.3359 186.578H72.4297V198ZM80.3516 191.023C81.5547 191.023 82.5 191.323 83.1875 191.922C83.8802 192.516 84.2266 193.331 84.2266 194.367C84.2266 195.549 83.849 196.477 83.0938 197.148C82.3438 197.82 81.3073 198.156 79.9844 198.156C78.6979 198.156 77.7161 197.951 77.0391 197.539V196.289C77.4036 196.523 77.8568 196.708 78.3984 196.844C78.9401 196.974 79.474 197.039 80 197.039C80.9167 197.039 81.6276 196.823 82.1328 196.391C82.6432 195.958 82.8984 195.333 82.8984 194.516C82.8984 192.922 81.9219 192.125 79.9688 192.125C79.474 192.125 78.8125 192.201 77.9844 192.352L77.3125 191.922L77.7422 186.578H83.4219V187.773H78.8516L78.5625 191.203C79.1615 191.083 79.7578 191.023 80.3516 191.023Z" fill="black"/>
<rect x="96" y="172" width="40" height="40" rx="8" fill="white"/>
<path d="M112.43 198H111.164V189.859C111.164 189.182 111.185 188.542 111.227 187.938C111.117 188.047 110.995 188.161 110.859 188.281C110.724 188.401 110.104 188.909 109 189.805L108.312 188.914L111.336 186.578H112.43V198ZM116.914 193.117C116.914 190.872 117.349 189.195 118.219 188.086C119.094 186.971 120.385 186.414 122.094 186.414C122.682 186.414 123.146 186.464 123.484 186.562V187.68C123.083 187.549 122.625 187.484 122.109 187.484C120.885 187.484 119.951 187.867 119.305 188.633C118.659 189.393 118.305 190.591 118.242 192.227H118.336C118.909 191.331 119.815 190.883 121.055 190.883C122.081 190.883 122.888 191.193 123.477 191.812C124.07 192.432 124.367 193.273 124.367 194.336C124.367 195.523 124.042 196.458 123.391 197.141C122.745 197.818 121.87 198.156 120.766 198.156C119.583 198.156 118.646 197.714 117.953 196.828C117.26 195.938 116.914 194.701 116.914 193.117ZM120.75 197.055C121.49 197.055 122.062 196.823 122.469 196.359C122.88 195.891 123.086 195.216 123.086 194.336C123.086 193.581 122.896 192.987 122.516 192.555C122.135 192.122 121.568 191.906 120.812 191.906C120.344 191.906 119.914 192.003 119.523 192.195C119.133 192.388 118.82 192.654 118.586 192.992C118.357 193.331 118.242 193.682 118.242 194.047C118.242 194.583 118.346 195.083 118.555 195.547C118.763 196.01 119.057 196.378 119.438 196.648C119.823 196.919 120.26 197.055 120.75 197.055Z" fill="black"/>
<rect x="136" y="172" width="40" height="40" rx="8" fill="white"/>
<path d="M152.43 198H151.164V189.859C151.164 189.182 151.185 188.542 151.227 187.938C151.117 188.047 150.995 188.161 150.859 188.281C150.724 188.401 150.104 188.909 149 189.805L148.312 188.914L151.336 186.578H152.43V198ZM158.227 198L162.961 187.773H156.734V186.578H164.336V187.617L159.664 198H158.227Z" fill="black"/>
<rect x="176" y="172" width="40" height="40" rx="20" fill="white"/>
<path d="M192.43 198H191.164V189.859C191.164 189.182 191.185 188.542 191.227 187.938C191.117 188.047 190.995 188.161 190.859 188.281C190.724 188.401 190.104 188.909 189 189.805L188.312 188.914L191.336 186.578H192.43V198ZM200.562 186.414C201.604 186.414 202.43 186.656 203.039 187.141C203.648 187.625 203.953 188.294 203.953 189.148C203.953 189.711 203.779 190.224 203.43 190.688C203.081 191.151 202.523 191.573 201.758 191.953C202.685 192.396 203.344 192.862 203.734 193.352C204.125 193.836 204.32 194.398 204.32 195.039C204.32 195.987 203.99 196.745 203.328 197.312C202.667 197.875 201.76 198.156 200.609 198.156C199.391 198.156 198.453 197.891 197.797 197.359C197.141 196.823 196.812 196.065 196.812 195.086C196.812 193.779 197.609 192.76 199.203 192.031C198.484 191.625 197.969 191.188 197.656 190.719C197.344 190.245 197.188 189.716 197.188 189.133C197.188 188.305 197.492 187.646 198.102 187.156C198.716 186.661 199.536 186.414 200.562 186.414ZM198.094 195.117C198.094 195.742 198.31 196.229 198.742 196.578C199.18 196.927 199.792 197.102 200.578 197.102C201.354 197.102 201.958 196.919 202.391 196.555C202.823 196.19 203.039 195.69 203.039 195.055C203.039 194.549 202.836 194.102 202.43 193.711C202.023 193.315 201.315 192.932 200.305 192.562C199.529 192.896 198.966 193.266 198.617 193.672C198.268 194.073 198.094 194.555 198.094 195.117ZM200.547 187.469C199.896 187.469 199.385 187.625 199.016 187.938C198.646 188.25 198.461 188.667 198.461 189.188C198.461 189.667 198.615 190.078 198.922 190.422C199.229 190.766 199.797 191.109 200.625 191.453C201.37 191.141 201.896 190.805 202.203 190.445C202.516 190.086 202.672 189.667 202.672 189.188C202.672 188.661 202.482 188.245 202.102 187.938C201.727 187.625 201.208 187.469 200.547 187.469Z" fill="black"/>
<rect x="216" y="172" width="40" height="40" rx="8" fill="white"/>
<path d="M232.43 198H231.164V189.859C231.164 189.182 231.185 188.542 231.227 187.938C231.117 188.047 230.995 188.161 230.859 188.281C230.724 188.401 230.104 188.909 229 189.805L228.312 188.914L231.336 186.578H232.43V198ZM244.289 191.453C244.289 195.922 242.56 198.156 239.102 198.156C238.497 198.156 238.018 198.104 237.664 198V196.883C238.081 197.018 238.555 197.086 239.086 197.086C240.336 197.086 241.279 196.701 241.914 195.93C242.555 195.154 242.904 193.966 242.961 192.367H242.867C242.581 192.799 242.201 193.13 241.727 193.359C241.253 193.583 240.719 193.695 240.125 193.695C239.115 193.695 238.312 193.393 237.719 192.789C237.125 192.185 236.828 191.341 236.828 190.258C236.828 189.07 237.159 188.133 237.82 187.445C238.487 186.758 239.362 186.414 240.445 186.414C241.221 186.414 241.898 186.615 242.477 187.016C243.06 187.411 243.508 187.992 243.82 188.758C244.133 189.518 244.289 190.417 244.289 191.453ZM240.445 187.523C239.701 187.523 239.125 187.763 238.719 188.242C238.312 188.721 238.109 189.388 238.109 190.242C238.109 190.992 238.297 191.583 238.672 192.016C239.047 192.443 239.617 192.656 240.383 192.656C240.857 192.656 241.292 192.56 241.688 192.367C242.089 192.174 242.404 191.911 242.633 191.578C242.862 191.245 242.977 190.896 242.977 190.531C242.977 189.984 242.87 189.479 242.656 189.016C242.443 188.552 242.143 188.188 241.758 187.922C241.378 187.656 240.94 187.523 240.445 187.523Z" fill="black"/>
<rect x="256" y="172" width="40" height="40" rx="8" fill="white"/>
<path d="M275.133 198H267.625V196.883L270.633 193.859C271.549 192.932 272.154 192.271 272.445 191.875C272.737 191.479 272.956 191.094 273.102 190.719C273.247 190.344 273.32 189.94 273.32 189.508C273.32 188.898 273.135 188.417 272.766 188.062C272.396 187.703 271.883 187.523 271.227 187.523C270.753 187.523 270.302 187.602 269.875 187.758C269.453 187.914 268.982 188.198 268.461 188.609L267.773 187.727C268.826 186.852 269.971 186.414 271.211 186.414C272.284 186.414 273.125 186.69 273.734 187.242C274.344 187.789 274.648 188.526 274.648 189.453C274.648 190.177 274.445 190.893 274.039 191.602C273.633 192.31 272.872 193.206 271.758 194.289L269.258 196.734V196.797H275.133V198ZM284.352 192.273C284.352 194.247 284.039 195.721 283.414 196.695C282.794 197.669 281.844 198.156 280.562 198.156C279.333 198.156 278.398 197.659 277.758 196.664C277.117 195.664 276.797 194.201 276.797 192.273C276.797 190.284 277.107 188.807 277.727 187.844C278.346 186.88 279.292 186.398 280.562 186.398C281.802 186.398 282.742 186.901 283.383 187.906C284.029 188.911 284.352 190.367 284.352 192.273ZM278.109 192.273C278.109 193.935 278.305 195.146 278.695 195.906C279.086 196.661 279.708 197.039 280.562 197.039C281.427 197.039 282.052 196.656 282.438 195.891C282.828 195.12 283.023 193.914 283.023 192.273C283.023 190.633 282.828 189.432 282.438 188.672C282.052 187.906 281.427 187.523 280.562 187.523C279.708 187.523 279.086 187.901 278.695 188.656C278.305 189.406 278.109 190.612 278.109 192.273Z" fill="black"/>
<rect x="16" y="212" width="40" height="40" rx="8" fill="white"/>
<path d="M35.1328 238H27.625V236.883L30.6328 233.859C31.5495 232.932 32.1536 232.271 32.4453 231.875C32.737 231.479 32.9557 231.094 33.1016 230.719C33.2474 230.344 33.3203 229.94 33.3203 229.508C33.3203 228.898 33.1354 228.417 32.7656 228.062C32.3958 227.703 31.8828 227.523 31.2266 227.523C30.7526 227.523 30.3021 227.602 29.875 227.758C29.4531 227.914 28.9818 228.198 28.4609 228.609L27.7734 227.727C28.8255 226.852 29.9714 226.414 31.2109 226.414C32.2839 226.414 33.125 226.69 33.7344 227.242C34.3438 227.789 34.6484 228.526 34.6484 229.453C34.6484 230.177 34.4453 230.893 34.0391 231.602C33.6328 232.31 32.8724 233.206 31.7578 234.289L29.2578 236.734V236.797H35.1328V238ZM41.5859 238H40.3203V229.859C40.3203 229.182 40.3411 228.542 40.3828 227.938C40.2734 228.047 40.151 228.161 40.0156 228.281C39.8802 228.401 39.2604 228.909 38.1562 229.805L37.4688 228.914L40.4922 226.578H41.5859V238Z" fill="black"/>
<rect x="56" y="212" width="40" height="40" rx="8" fill="white"/>
<path d="M75.1328 238H67.625V236.883L70.6328 233.859C71.5495 232.932 72.1536 232.271 72.4453 231.875C72.737 231.479 72.9557 231.094 73.1016 230.719C73.2474 230.344 73.3203 229.94 73.3203 229.508C73.3203 228.898 73.1354 228.417 72.7656 228.062C72.3958 227.703 71.8828 227.523 71.2266 227.523C70.7526 227.523 70.3021 227.602 69.875 227.758C69.4531 227.914 68.9818 228.198 68.4609 228.609L67.7734 227.727C68.8255 226.852 69.9714 226.414 71.2109 226.414C72.2839 226.414 73.125 226.69 73.7344 227.242C74.3438 227.789 74.6484 228.526 74.6484 229.453C74.6484 230.177 74.4453 230.893 74.0391 231.602C73.6328 232.31 72.8724 233.206 71.7578 234.289L69.2578 236.734V236.797H75.1328V238ZM84.2891 238H76.7812V236.883L79.7891 233.859C80.7057 232.932 81.3099 232.271 81.6016 231.875C81.8932 231.479 82.112 231.094 82.2578 230.719C82.4036 230.344 82.4766 229.94 82.4766 229.508C82.4766 228.898 82.2917 228.417 81.9219 228.062C81.5521 227.703 81.0391 227.523 80.3828 227.523C79.9089 227.523 79.4583 227.602 79.0312 227.758C78.6094 227.914 78.138 228.198 77.6172 228.609L76.9297 227.727C77.9818 226.852 79.1276 226.414 80.3672 226.414C81.4401 226.414 82.2812 226.69 82.8906 227.242C83.5 227.789 83.8047 228.526 83.8047 229.453C83.8047 230.177 83.6016 230.893 83.1953 231.602C82.7891 232.31 82.0286 233.206 80.9141 234.289L78.4141 236.734V236.797H84.2891V238Z" fill="black"/>
<rect x="96" y="212" width="40" height="40" rx="8" fill="white"/>
<path d="M115.133 238H107.625V236.883L110.633 233.859C111.549 232.932 112.154 232.271 112.445 231.875C112.737 231.479 112.956 231.094 113.102 230.719C113.247 230.344 113.32 229.94 113.32 229.508C113.32 228.898 113.135 228.417 112.766 228.062C112.396 227.703 111.883 227.523 111.227 227.523C110.753 227.523 110.302 227.602 109.875 227.758C109.453 227.914 108.982 228.198 108.461 228.609L107.773 227.727C108.826 226.852 109.971 226.414 111.211 226.414C112.284 226.414 113.125 226.69 113.734 227.242C114.344 227.789 114.648 228.526 114.648 229.453C114.648 230.177 114.445 230.893 114.039 231.602C113.633 232.31 112.872 233.206 111.758 234.289L109.258 236.734V236.797H115.133V238ZM123.859 229.266C123.859 229.995 123.654 230.591 123.242 231.055C122.836 231.518 122.258 231.828 121.508 231.984V232.047C122.424 232.161 123.104 232.453 123.547 232.922C123.99 233.391 124.211 234.005 124.211 234.766C124.211 235.854 123.833 236.693 123.078 237.281C122.323 237.865 121.25 238.156 119.859 238.156C119.255 238.156 118.701 238.109 118.195 238.016C117.695 237.927 117.208 237.768 116.734 237.539V236.305C117.229 236.549 117.755 236.737 118.312 236.867C118.875 236.992 119.406 237.055 119.906 237.055C121.88 237.055 122.867 236.281 122.867 234.734C122.867 233.349 121.779 232.656 119.602 232.656H118.477V231.539H119.617C120.508 231.539 121.214 231.344 121.734 230.953C122.255 230.557 122.516 230.01 122.516 229.312C122.516 228.755 122.323 228.318 121.938 228C121.557 227.682 121.039 227.523 120.383 227.523C119.883 227.523 119.411 227.591 118.969 227.727C118.526 227.862 118.021 228.112 117.453 228.477L116.797 227.602C117.266 227.232 117.805 226.943 118.414 226.734C119.029 226.521 119.674 226.414 120.352 226.414C121.461 226.414 122.323 226.669 122.938 227.18C123.552 227.685 123.859 228.38 123.859 229.266Z" fill="black"/>
<rect x="136" y="212" width="40" height="40" rx="8" fill="white"/>
<path d="M155.133 238H147.625V236.883L150.633 233.859C151.549 232.932 152.154 232.271 152.445 231.875C152.737 231.479 152.956 231.094 153.102 230.719C153.247 230.344 153.32 229.94 153.32 229.508C153.32 228.898 153.135 228.417 152.766 228.062C152.396 227.703 151.883 227.523 151.227 227.523C150.753 227.523 150.302 227.602 149.875 227.758C149.453 227.914 148.982 228.198 148.461 228.609L147.773 227.727C148.826 226.852 149.971 226.414 151.211 226.414C152.284 226.414 153.125 226.69 153.734 227.242C154.344 227.789 154.648 228.526 154.648 229.453C154.648 230.177 154.445 230.893 154.039 231.602C153.633 232.31 152.872 233.206 151.758 234.289L149.258 236.734V236.797H155.133V238ZM164.828 235.375H163.133V238H161.891V235.375H156.336V234.242L161.758 226.516H163.133V234.195H164.828V235.375ZM161.891 234.195V230.398C161.891 229.654 161.917 228.812 161.969 227.875H161.906C161.656 228.375 161.422 228.789 161.203 229.117L157.633 234.195H161.891Z" fill="black"/>
<rect x="176" y="212" width="40" height="40" rx="8" fill="white"/>
<path d="M195.133 238H187.625V236.883L190.633 233.859C191.549 232.932 192.154 232.271 192.445 231.875C192.737 231.479 192.956 231.094 193.102 230.719C193.247 230.344 193.32 229.94 193.32 229.508C193.32 228.898 193.135 228.417 192.766 228.062C192.396 227.703 191.883 227.523 191.227 227.523C190.753 227.523 190.302 227.602 189.875 227.758C189.453 227.914 188.982 228.198 188.461 228.609L187.773 227.727C188.826 226.852 189.971 226.414 191.211 226.414C192.284 226.414 193.125 226.69 193.734 227.242C194.344 227.789 194.648 228.526 194.648 229.453C194.648 230.177 194.445 230.893 194.039 231.602C193.633 232.31 192.872 233.206 191.758 234.289L189.258 236.734V236.797H195.133V238ZM200.352 231.023C201.555 231.023 202.5 231.323 203.188 231.922C203.88 232.516 204.227 233.331 204.227 234.367C204.227 235.549 203.849 236.477 203.094 237.148C202.344 237.82 201.307 238.156 199.984 238.156C198.698 238.156 197.716 237.951 197.039 237.539V236.289C197.404 236.523 197.857 236.708 198.398 236.844C198.94 236.974 199.474 237.039 200 237.039C200.917 237.039 201.628 236.823 202.133 236.391C202.643 235.958 202.898 235.333 202.898 234.516C202.898 232.922 201.922 232.125 199.969 232.125C199.474 232.125 198.812 232.201 197.984 232.352L197.312 231.922L197.742 226.578H203.422V227.773H198.852L198.562 231.203C199.161 231.083 199.758 231.023 200.352 231.023Z" fill="black"/>
<rect x="216" y="212" width="40" height="40" rx="8" fill="white"/>
<path d="M235.133 238H227.625V236.883L230.633 233.859C231.549 232.932 232.154 232.271 232.445 231.875C232.737 231.479 232.956 231.094 233.102 230.719C233.247 230.344 233.32 229.94 233.32 229.508C233.32 228.898 233.135 228.417 232.766 228.062C232.396 227.703 231.883 227.523 231.227 227.523C230.753 227.523 230.302 227.602 229.875 227.758C229.453 227.914 228.982 228.198 228.461 228.609L227.773 227.727C228.826 226.852 229.971 226.414 231.211 226.414C232.284 226.414 233.125 226.69 233.734 227.242C234.344 227.789 234.648 228.526 234.648 229.453C234.648 230.177 234.445 230.893 234.039 231.602C233.633 232.31 232.872 233.206 231.758 234.289L229.258 236.734V236.797H235.133V238ZM236.914 233.117C236.914 230.872 237.349 229.195 238.219 228.086C239.094 226.971 240.385 226.414 242.094 226.414C242.682 226.414 243.146 226.464 243.484 226.562V227.68C243.083 227.549 242.625 227.484 242.109 227.484C240.885 227.484 239.951 227.867 239.305 228.633C238.659 229.393 238.305 230.591 238.242 232.227H238.336C238.909 231.331 239.815 230.883 241.055 230.883C242.081 230.883 242.888 231.193 243.477 231.812C244.07 232.432 244.367 233.273 244.367 234.336C244.367 235.523 244.042 236.458 243.391 237.141C242.745 237.818 241.87 238.156 240.766 238.156C239.583 238.156 238.646 237.714 237.953 236.828C237.26 235.938 236.914 234.701 236.914 233.117ZM240.75 237.055C241.49 237.055 242.062 236.823 242.469 236.359C242.88 235.891 243.086 235.216 243.086 234.336C243.086 233.581 242.896 232.987 242.516 232.555C242.135 232.122 241.568 231.906 240.812 231.906C240.344 231.906 239.914 232.003 239.523 232.195C239.133 232.388 238.82 232.654 238.586 232.992C238.357 233.331 238.242 233.682 238.242 234.047C238.242 234.583 238.346 235.083 238.555 235.547C238.763 236.01 239.057 236.378 239.438 236.648C239.823 236.919 240.26 237.055 240.75 237.055Z" fill="black"/>
<rect x="256" y="212" width="40" height="40" rx="8" fill="white"/>
<path d="M275.133 238H267.625V236.883L270.633 233.859C271.549 232.932 272.154 232.271 272.445 231.875C272.737 231.479 272.956 231.094 273.102 230.719C273.247 230.344 273.32 229.94 273.32 229.508C273.32 228.898 273.135 228.417 272.766 228.062C272.396 227.703 271.883 227.523 271.227 227.523C270.753 227.523 270.302 227.602 269.875 227.758C269.453 227.914 268.982 228.198 268.461 228.609L267.773 227.727C268.826 226.852 269.971 226.414 271.211 226.414C272.284 226.414 273.125 226.69 273.734 227.242C274.344 227.789 274.648 228.526 274.648 229.453C274.648 230.177 274.445 230.893 274.039 231.602C273.633 232.31 272.872 233.206 271.758 234.289L269.258 236.734V236.797H275.133V238ZM278.227 238L282.961 227.773H276.734V226.578H284.336V227.617L279.664 238H278.227Z" fill="black"/>
<rect x="16" y="252" width="40" height="40" rx="8" fill="white"/>
<path d="M35.1328 278H27.625V276.883L30.6328 273.859C31.5495 272.932 32.1536 272.271 32.4453 271.875C32.737 271.479 32.9557 271.094 33.1016 270.719C33.2474 270.344 33.3203 269.94 33.3203 269.508C33.3203 268.898 33.1354 268.417 32.7656 268.062C32.3958 267.703 31.8828 267.523 31.2266 267.523C30.7526 267.523 30.3021 267.602 29.875 267.758C29.4531 267.914 28.9818 268.198 28.4609 268.609L27.7734 267.727C28.8255 266.852 29.9714 266.414 31.2109 266.414C32.2839 266.414 33.125 266.69 33.7344 267.242C34.3438 267.789 34.6484 268.526 34.6484 269.453C34.6484 270.177 34.4453 270.893 34.0391 271.602C33.6328 272.31 32.8724 273.206 31.7578 274.289L29.2578 276.734V276.797H35.1328V278ZM40.5625 266.414C41.6042 266.414 42.4297 266.656 43.0391 267.141C43.6484 267.625 43.9531 268.294 43.9531 269.148C43.9531 269.711 43.7786 270.224 43.4297 270.688C43.0807 271.151 42.5234 271.573 41.7578 271.953C42.6849 272.396 43.3438 272.862 43.7344 273.352C44.125 273.836 44.3203 274.398 44.3203 275.039C44.3203 275.987 43.9896 276.745 43.3281 277.312C42.6667 277.875 41.7604 278.156 40.6094 278.156C39.3906 278.156 38.4531 277.891 37.7969 277.359C37.1406 276.823 36.8125 276.065 36.8125 275.086C36.8125 273.779 37.6094 272.76 39.2031 272.031C38.4844 271.625 37.9688 271.188 37.6562 270.719C37.3438 270.245 37.1875 269.716 37.1875 269.133C37.1875 268.305 37.4922 267.646 38.1016 267.156C38.7161 266.661 39.5365 266.414 40.5625 266.414ZM38.0938 275.117C38.0938 275.742 38.3099 276.229 38.7422 276.578C39.1797 276.927 39.7917 277.102 40.5781 277.102C41.3542 277.102 41.9583 276.919 42.3906 276.555C42.8229 276.19 43.0391 275.69 43.0391 275.055C43.0391 274.549 42.8359 274.102 42.4297 273.711C42.0234 273.315 41.3151 272.932 40.3047 272.562C39.5286 272.896 38.9661 273.266 38.6172 273.672C38.2682 274.073 38.0938 274.555 38.0938 275.117ZM40.5469 267.469C39.8958 267.469 39.3854 267.625 39.0156 267.938C38.6458 268.25 38.4609 268.667 38.4609 269.188C38.4609 269.667 38.6146 270.078 38.9219 270.422C39.2292 270.766 39.7969 271.109 40.625 271.453C41.3698 271.141 41.8958 270.805 42.2031 270.445C42.5156 270.086 42.6719 269.667 42.6719 269.188C42.6719 268.661 42.4818 268.245 42.1016 267.938C41.7266 267.625 41.2083 267.469 40.5469 267.469Z" fill="black"/>
<rect x="56" y="252" width="40" height="40" rx="8" fill="white"/>
<path d="M75.1328 278H67.625V276.883L70.6328 273.859C71.5495 272.932 72.1536 272.271 72.4453 271.875C72.737 271.479 72.9557 271.094 73.1016 270.719C73.2474 270.344 73.3203 269.94 73.3203 269.508C73.3203 268.898 73.1354 268.417 72.7656 268.062C72.3958 267.703 71.8828 267.523 71.2266 267.523C70.7526 267.523 70.3021 267.602 69.875 267.758C69.4531 267.914 68.9818 268.198 68.4609 268.609L67.7734 267.727C68.8255 266.852 69.9714 266.414 71.2109 266.414C72.2839 266.414 73.125 266.69 73.7344 267.242C74.3438 267.789 74.6484 268.526 74.6484 269.453C74.6484 270.177 74.4453 270.893 74.0391 271.602C73.6328 272.31 72.8724 273.206 71.7578 274.289L69.2578 276.734V276.797H75.1328V278ZM84.2891 271.453C84.2891 275.922 82.5599 278.156 79.1016 278.156C78.4974 278.156 78.0182 278.104 77.6641 278V276.883C78.0807 277.018 78.5547 277.086 79.0859 277.086C80.3359 277.086 81.2786 276.701 81.9141 275.93C82.5547 275.154 82.9036 273.966 82.9609 272.367H82.8672C82.5807 272.799 82.2005 273.13 81.7266 273.359C81.2526 273.583 80.7188 273.695 80.125 273.695C79.1146 273.695 78.3125 273.393 77.7188 272.789C77.125 272.185 76.8281 271.341 76.8281 270.258C76.8281 269.07 77.1589 268.133 77.8203 267.445C78.487 266.758 79.362 266.414 80.4453 266.414C81.2214 266.414 81.8984 266.615 82.4766 267.016C83.0599 267.411 83.5078 267.992 83.8203 268.758C84.1328 269.518 84.2891 270.417 84.2891 271.453ZM80.4453 267.523C79.7005 267.523 79.125 267.763 78.7188 268.242C78.3125 268.721 78.1094 269.388 78.1094 270.242C78.1094 270.992 78.2969 271.583 78.6719 272.016C79.0469 272.443 79.6172 272.656 80.3828 272.656C80.8568 272.656 81.2917 272.56 81.6875 272.367C82.0885 272.174 82.4036 271.911 82.6328 271.578C82.862 271.245 82.9766 270.896 82.9766 270.531C82.9766 269.984 82.8698 269.479 82.6562 269.016C82.4427 268.552 82.1432 268.188 81.7578 267.922C81.3776 267.656 80.9401 267.523 80.4453 267.523Z" fill="black"/>
<rect x="96" y="252" width="40" height="40" rx="8" fill="white"/>
<path d="M114.703 269.266C114.703 269.995 114.497 270.591 114.086 271.055C113.68 271.518 113.102 271.828 112.352 271.984V272.047C113.268 272.161 113.948 272.453 114.391 272.922C114.833 273.391 115.055 274.005 115.055 274.766C115.055 275.854 114.677 276.693 113.922 277.281C113.167 277.865 112.094 278.156 110.703 278.156C110.099 278.156 109.544 278.109 109.039 278.016C108.539 277.927 108.052 277.768 107.578 277.539V276.305C108.073 276.549 108.599 276.737 109.156 276.867C109.719 276.992 110.25 277.055 110.75 277.055C112.724 277.055 113.711 276.281 113.711 274.734C113.711 273.349 112.622 272.656 110.445 272.656H109.32V271.539H110.461C111.352 271.539 112.057 271.344 112.578 270.953C113.099 270.557 113.359 270.01 113.359 269.312C113.359 268.755 113.167 268.318 112.781 268C112.401 267.682 111.883 267.523 111.227 267.523C110.727 267.523 110.255 267.591 109.812 267.727C109.37 267.862 108.865 268.112 108.297 268.477L107.641 267.602C108.109 267.232 108.648 266.943 109.258 266.734C109.872 266.521 110.518 266.414 111.195 266.414C112.305 266.414 113.167 266.669 113.781 267.18C114.396 267.685 114.703 268.38 114.703 269.266ZM124.352 272.273C124.352 274.247 124.039 275.721 123.414 276.695C122.794 277.669 121.844 278.156 120.562 278.156C119.333 278.156 118.398 277.659 117.758 276.664C117.117 275.664 116.797 274.201 116.797 272.273C116.797 270.284 117.107 268.807 117.727 267.844C118.346 266.88 119.292 266.398 120.562 266.398C121.802 266.398 122.742 266.901 123.383 267.906C124.029 268.911 124.352 270.367 124.352 272.273ZM118.109 272.273C118.109 273.935 118.305 275.146 118.695 275.906C119.086 276.661 119.708 277.039 120.562 277.039C121.427 277.039 122.052 276.656 122.438 275.891C122.828 275.12 123.023 273.914 123.023 272.273C123.023 270.633 122.828 269.432 122.438 268.672C122.052 267.906 121.427 267.523 120.562 267.523C119.708 267.523 119.086 267.901 118.695 268.656C118.305 269.406 118.109 270.612 118.109 272.273Z" fill="black"/>
<rect x="136" y="252" width="40" height="40" rx="8" fill="white"/>
<path d="M154.703 269.266C154.703 269.995 154.497 270.591 154.086 271.055C153.68 271.518 153.102 271.828 152.352 271.984V272.047C153.268 272.161 153.948 272.453 154.391 272.922C154.833 273.391 155.055 274.005 155.055 274.766C155.055 275.854 154.677 276.693 153.922 277.281C153.167 277.865 152.094 278.156 150.703 278.156C150.099 278.156 149.544 278.109 149.039 278.016C148.539 277.927 148.052 277.768 147.578 277.539V276.305C148.073 276.549 148.599 276.737 149.156 276.867C149.719 276.992 150.25 277.055 150.75 277.055C152.724 277.055 153.711 276.281 153.711 274.734C153.711 273.349 152.622 272.656 150.445 272.656H149.32V271.539H150.461C151.352 271.539 152.057 271.344 152.578 270.953C153.099 270.557 153.359 270.01 153.359 269.312C153.359 268.755 153.167 268.318 152.781 268C152.401 267.682 151.883 267.523 151.227 267.523C150.727 267.523 150.255 267.591 149.812 267.727C149.37 267.862 148.865 268.112 148.297 268.477L147.641 267.602C148.109 267.232 148.648 266.943 149.258 266.734C149.872 266.521 150.518 266.414 151.195 266.414C152.305 266.414 153.167 266.669 153.781 267.18C154.396 267.685 154.703 268.38 154.703 269.266ZM161.586 278H160.32V269.859C160.32 269.182 160.341 268.542 160.383 267.938C160.273 268.047 160.151 268.161 160.016 268.281C159.88 268.401 159.26 268.909 158.156 269.805L157.469 268.914L160.492 266.578H161.586V278Z" fill="black"/>
<rect x="176" y="252" width="40" height="40" rx="8" fill="white"/>
<path d="M197.008 278H195.742V269.859C195.742 269.182 195.763 268.542 195.805 267.938C195.695 268.047 195.573 268.161 195.438 268.281C195.302 268.401 194.682 268.909 193.578 269.805L192.891 268.914L195.914 266.578H197.008V278Z" fill="black"/>
<path d="M197.008 278H195.742V269.859C195.742 269.182 195.763 268.542 195.805 267.938C195.695 268.047 195.573 268.161 195.438 268.281C195.302 268.401 194.682 268.909 193.578 269.805L192.891 268.914L195.914 266.578H197.008V278Z" fill="white" fill-opacity="0.72"/>
<rect x="216" y="252" width="40" height="40" rx="8" fill="white"/>
<path d="M239.711 278H232.203V276.883L235.211 273.859C236.128 272.932 236.732 272.271 237.023 271.875C237.315 271.479 237.534 271.094 237.68 270.719C237.826 270.344 237.898 269.94 237.898 269.508C237.898 268.898 237.714 268.417 237.344 268.062C236.974 267.703 236.461 267.523 235.805 267.523C235.331 267.523 234.88 267.602 234.453 267.758C234.031 267.914 233.56 268.198 233.039 268.609L232.352 267.727C233.404 266.852 234.549 266.414 235.789 266.414C236.862 266.414 237.703 266.69 238.312 267.242C238.922 267.789 239.227 268.526 239.227 269.453C239.227 270.177 239.023 270.893 238.617 271.602C238.211 272.31 237.451 273.206 236.336 274.289L233.836 276.734V276.797H239.711V278Z" fill="black"/>
<path d="M239.711 278H232.203V276.883L235.211 273.859C236.128 272.932 236.732 272.271 237.023 271.875C237.315 271.479 237.534 271.094 237.68 270.719C237.826 270.344 237.898 269.94 237.898 269.508C237.898 268.898 237.714 268.417 237.344 268.062C236.974 267.703 236.461 267.523 235.805 267.523C235.331 267.523 234.88 267.602 234.453 267.758C234.031 267.914 233.56 268.198 233.039 268.609L232.352 267.727C233.404 266.852 234.549 266.414 235.789 266.414C236.862 266.414 237.703 266.69 238.312 267.242C238.922 267.789 239.227 268.526 239.227 269.453C239.227 270.177 239.023 270.893 238.617 271.602C238.211 272.31 237.451 273.206 236.336 274.289L233.836 276.734V276.797H239.711V278Z" fill="white" fill-opacity="0.72"/>
<rect x="256" y="252" width="40" height="40" rx="8" fill="white"/>
<path d="M279.281 269.266C279.281 269.995 279.076 270.591 278.664 271.055C278.258 271.518 277.68 271.828 276.93 271.984V272.047C277.846 272.161 278.526 272.453 278.969 272.922C279.411 273.391 279.633 274.005 279.633 274.766C279.633 275.854 279.255 276.693 278.5 277.281C277.745 277.865 276.672 278.156 275.281 278.156C274.677 278.156 274.122 278.109 273.617 278.016C273.117 277.927 272.63 277.768 272.156 277.539V276.305C272.651 276.549 273.177 276.737 273.734 276.867C274.297 276.992 274.828 277.055 275.328 277.055C277.302 277.055 278.289 276.281 278.289 274.734C278.289 273.349 277.201 272.656 275.023 272.656H273.898V271.539H275.039C275.93 271.539 276.635 271.344 277.156 270.953C277.677 270.557 277.938 270.01 277.938 269.312C277.938 268.755 277.745 268.318 277.359 268C276.979 267.682 276.461 267.523 275.805 267.523C275.305 267.523 274.833 267.591 274.391 267.727C273.948 267.862 273.443 268.112 272.875 268.477L272.219 267.602C272.688 267.232 273.227 266.943 273.836 266.734C274.451 266.521 275.096 266.414 275.773 266.414C276.883 266.414 277.745 266.669 278.359 267.18C278.974 267.685 279.281 268.38 279.281 269.266Z" fill="black"/>
<path d="M279.281 269.266C279.281 269.995 279.076 270.591 278.664 271.055C278.258 271.518 277.68 271.828 276.93 271.984V272.047C277.846 272.161 278.526 272.453 278.969 272.922C279.411 273.391 279.633 274.005 279.633 274.766C279.633 275.854 279.255 276.693 278.5 277.281C277.745 277.865 276.672 278.156 275.281 278.156C274.677 278.156 274.122 278.109 273.617 278.016C273.117 277.927 272.63 277.768 272.156 277.539V276.305C272.651 276.549 273.177 276.737 273.734 276.867C274.297 276.992 274.828 277.055 275.328 277.055C277.302 277.055 278.289 276.281 278.289 274.734C278.289 273.349 277.201 272.656 275.023 272.656H273.898V271.539H275.039C275.93 271.539 276.635 271.344 277.156 270.953C277.677 270.557 277.938 270.01 277.938 269.312C277.938 268.755 277.745 268.318 277.359 268C276.979 267.682 276.461 267.523 275.805 267.523C275.305 267.523 274.833 267.591 274.391 267.727C273.948 267.862 273.443 268.112 272.875 268.477L272.219 267.602C272.688 267.232 273.227 266.943 273.836 266.734C274.451 266.521 275.096 266.414 275.773 266.414C276.883 266.414 277.745 266.669 278.359 267.18C278.974 267.685 279.281 268.38 279.281 269.266Z" fill="white" fill-opacity="0.72"/>
<rect x="1" y="1" width="310" height="306" rx="7" stroke="black" stroke-width="2"/>
</svg>
