<svg width="1252" height="57" viewBox="0 0 1252 57" fill="none" xmlns="http://www.w3.org/2000/svg">
<g clip-path="url(#clip0_126_855)">
<g style="mix-blend-mode:multiply">
<path d="M28.7739 48.3141C28.3326 48.7052 27.6684 48.7039 27.2286 48.3112L24.6166 45.9787C12.5999 35.2899 4.6666 28.2403 4.6666 19.5886C4.6666 12.539 9.1466 7 16.3333 7C21.533 7 24.7118 11.161 27.1424 14.1399C27.5893 14.6877 28.4105 14.6877 28.8575 14.1399C31.288 11.161 34.4669 7 39.6666 7C46.8533 7 51.3333 12.539 51.3333 19.5886C51.3333 28.2403 43.3999 35.2899 31.3833 46.0016L28.7739 48.3141Z" stroke="black" stroke-width="3.48739"/>
</g>
<g style="mix-blend-mode:multiply">
<path d="M136.333 46.7411C136.333 47.6866 135.265 48.2366 134.495 47.687L120.676 37.816C120.271 37.5273 119.729 37.5273 119.324 37.816L105.505 47.687C104.735 48.2366 103.667 47.6866 103.667 46.7411V11.6667C103.667 10.429 104.158 9.242 105.033 8.36683C105.909 7.49167 107.096 7 108.333 7H131.667C132.904 7 134.091 7.49167 134.966 8.36683C135.842 9.242 136.333 10.429 136.333 11.6667V46.7411Z" stroke="black" stroke-width="3.48739" stroke-linecap="round" stroke-linejoin="round"/>
</g>
<g style="mix-blend-mode:multiply">
<path d="M205.33 43.3721L205.827 41.7008C205.378 41.5671 204.893 41.6201 204.483 41.8479L205.33 43.3721ZM195.2 49L193.471 48.7777C193.387 49.4301 193.677 50.0742 194.222 50.4433C194.766 50.8124 195.472 50.8437 196.047 50.5243L195.2 49ZM196.572 38.3306L198.301 38.553C198.372 38.0054 198.179 37.4568 197.781 37.0741L196.572 38.3306ZM212 46.077C224.362 46.077 234.744 37.1264 234.744 25.6667H231.256C231.256 34.8256 222.834 42.5896 212 42.5896V46.077ZM204.833 45.0434C207.09 45.7148 209.5 46.077 212 46.077V42.5896C209.837 42.5896 207.762 42.2764 205.827 41.7008L204.833 45.0434ZM196.047 50.5243L206.177 44.8964L204.483 41.8479L194.353 47.4757L196.047 50.5243ZM194.842 38.1082L193.471 48.7777L196.93 49.2224L198.301 38.553L194.842 38.1082ZM189.256 25.6667C189.256 31.0771 191.599 35.9662 195.363 39.5872L197.781 37.0741C194.627 34.0398 192.744 30.0314 192.744 25.6667H189.256ZM212 5.2563C199.638 5.2563 189.256 14.2069 189.256 25.6667H192.744C192.744 16.5078 201.166 8.7437 212 8.7437V5.2563ZM234.744 25.6667C234.744 14.2069 224.362 5.2563 212 5.2563V8.7437C222.834 8.7437 231.256 16.5078 231.256 25.6667H234.744Z" fill="black"/>
</g>
<g style="mix-blend-mode:multiply">
<path fill-rule="evenodd" clip-rule="evenodd" d="M314.252 8.41421C315.034 7.63316 316.3 7.63316 317.081 8.41421L323.586 14.9191C324.367 15.7002 324.367 16.9665 323.586 17.7475L297.428 43.9051C297.149 44.1843 296.793 44.3747 296.406 44.4521L285.628 46.6078C285.488 46.6358 285.364 46.5124 285.392 46.3725L287.548 35.5938C287.625 35.2066 287.816 34.851 288.095 34.5718L314.252 8.41421Z" stroke="black" stroke-width="3.48739"/>
<path d="M308.667 14L318 23.3333" stroke="black" stroke-width="3.48739"/>
<path d="M304 46.6667H322.667" stroke="black" stroke-width="3.48739" stroke-linecap="round"/>
</g>
<g style="mix-blend-mode:multiply">
<rect width="42" height="42" rx="2.32493" transform="matrix(0 1 1 0 375 7)" stroke="black" stroke-width="3.48739" stroke-linecap="round" stroke-linejoin="round"/>
<path d="M391.333 16.3333H384.333V37.3333H391.333V16.3333Z" stroke="black" stroke-width="3.48739" stroke-linecap="round" stroke-linejoin="round"/>
<path d="M407.667 16.3333H400.667V28H407.667V16.3333Z" stroke="black" stroke-width="3.48739" stroke-linecap="round" stroke-linejoin="round"/>
</g>
<g style="mix-blend-mode:multiply">
<path d="M466.975 23.3333H479.762C480.404 23.3333 480.924 23.8538 480.924 24.4958V29.1709C480.924 29.8129 481.445 30.3333 482.087 30.3333H493.711C494.353 30.3333 494.874 29.8129 494.874 29.1709V24.4958C494.874 23.8538 495.394 23.3333 496.036 23.3333H508.824" stroke="black" stroke-width="3.48739" stroke-linejoin="round"/>
<path fill-rule="evenodd" clip-rule="evenodd" d="M466.975 23.6069C466.975 23.427 467.017 23.2495 467.097 23.0885L473.629 9.97744C473.825 9.58279 474.228 9.33334 474.669 9.33334H501.129C501.57 9.33334 501.973 9.58279 502.17 9.97744L508.702 23.0885C508.782 23.2495 508.824 23.427 508.824 23.6069V45.5042C508.824 46.1462 508.303 46.6667 507.661 46.6667H468.137C467.495 46.6667 466.975 46.1462 466.975 45.5042V23.6069Z" stroke="black" stroke-width="3.48739" stroke-linejoin="round"/>
</g>
<g style="mix-blend-mode:multiply">
<path d="M596.906 34.1466L597.272 35.9407L596.906 34.1466ZM598.355 35.789L600.001 36.5906L598.355 35.789ZM592.984 36.3715C594.451 36.3715 595.885 36.2234 597.272 35.9407L596.54 32.3524C595.393 32.5863 594.204 32.7094 592.984 32.7094V36.3715ZM571.552 14.8682C571.552 26.7379 581.141 36.3715 592.984 36.3715V32.7094C583.176 32.7094 575.214 24.7279 575.214 14.8682H571.552ZM571.982 10.5605C571.7 11.9537 571.552 13.3946 571.552 14.8682H575.214C575.214 13.6403 575.337 12.4433 575.571 11.2882L571.982 10.5605ZM571.326 7.83714C564.206 11.3316 559.301 18.6728 559.301 27.1634H562.963C562.963 20.1172 567.03 14.0249 572.94 11.1246L571.326 7.83714ZM559.301 27.1634C559.301 39.0331 568.89 48.6667 580.733 48.6667V45.0046C570.925 45.0046 562.963 37.0231 562.963 27.1634H559.301ZM580.733 48.6667C589.205 48.6667 596.523 43.735 600.001 36.5906L596.708 34.9875C593.817 40.9254 587.746 45.0046 580.733 45.0046V48.6667ZM575.571 11.2882C575.806 10.1302 575.379 9.01308 574.601 8.30711C573.794 7.5743 572.536 7.2432 571.326 7.83714L572.94 11.1246C572.823 11.1817 572.66 11.2125 572.488 11.1826C572.328 11.1548 572.212 11.0843 572.141 11.0192C572.008 10.8984 571.948 10.7261 571.982 10.5605L575.571 11.2882ZM597.272 35.9407C597.107 35.9743 596.936 35.9157 596.815 35.7839C596.751 35.7127 596.68 35.5978 596.652 35.4383C596.622 35.2668 596.652 35.1042 596.708 34.9875L600.001 36.5906C600.591 35.3787 600.256 34.1227 599.522 33.3172C598.815 32.5412 597.698 32.1165 596.54 32.3524L597.272 35.9407Z" fill="black"/>
</g>
<g style="mix-blend-mode:multiply">
<path d="M650.798 50.5951V24.2718C650.798 23.9443 650.936 23.632 651.179 23.4117L671.016 5.37756C671.46 4.97448 672.137 4.97448 672.58 5.37756L692.418 23.4117C692.66 23.632 692.798 23.9336 692.798 24.2611V50.6035C692.798 51.2455 692.278 51.7576 691.636 51.7576H651.961C651.319 51.7576 650.798 51.2371 650.798 50.5951Z" stroke="black" stroke-width="3.48739"/>
<rect x="664.798" y="32.6667" width="14" height="18.6667" rx="1.16246" stroke="black" stroke-width="3.48739"/>
</g>
<g style="mix-blend-mode:multiply">
<rect x="747.465" y="25.6667" width="32.6667" height="23.3333" rx="1.16246" stroke="black" stroke-width="3.48739" stroke-linecap="round" stroke-linejoin="round"/>
<path d="M752.132 18.6667C752.132 12.2233 757.355 7 763.798 7V7C770.242 7 775.465 12.2233 775.465 18.6667V25.6667H752.132V18.6667Z" stroke="black" stroke-width="3.48739" stroke-linecap="round" stroke-linejoin="round"/>
</g>
<g style="mix-blend-mode:multiply">
<path fill-rule="evenodd" clip-rule="evenodd" d="M837.098 13.4815L848.723 9.33334V42.5185L837.098 46.6667V13.4815Z" stroke="black" stroke-width="3.48739" stroke-linejoin="round"/>
<path fill-rule="evenodd" clip-rule="evenodd" d="M862.672 13.4815L874.297 9.33334V42.5185L862.672 46.6667V13.4815Z" stroke="black" stroke-width="3.48739" stroke-linejoin="round"/>
<path fill-rule="evenodd" clip-rule="evenodd" d="M862.672 13.4815L848.723 9.33334V42.5185L862.672 46.6667V13.4815Z" stroke="black" stroke-width="3.48739" stroke-linejoin="round"/>
</g>
<g style="mix-blend-mode:multiply">
<path d="M947.597 37.3333V28" stroke="black" stroke-width="3.5" stroke-linecap="round"/>
<path fill-rule="evenodd" clip-rule="evenodd" d="M947.597 18.6666C946.308 18.6666 945.263 19.7113 945.263 21C945.263 22.2886 946.308 23.3333 947.597 23.3333C948.885 23.3333 949.93 22.2886 949.93 21C949.93 19.7113 948.885 18.6666 947.597 18.6666Z" fill="black"/>
<path fill-rule="evenodd" clip-rule="evenodd" d="M947.597 51.3333C960.483 51.3333 970.93 40.8866 970.93 28C970.93 15.1133 960.483 4.66666 947.597 4.66666C934.71 4.66666 924.263 15.1133 924.263 28C924.263 40.8866 934.71 51.3333 947.597 51.3333Z" stroke="black" stroke-width="3.5"/>
</g>
<path d="M1063.42 26.1601L1058.28 26.1601M1058.28 26.1601L1058.28 33.8709M1058.28 26.1601L1049.29 26.1601M1038.72 26.1601C1038.73 27.4784 1038.48 28.7854 1037.98 30.0059C1037.48 31.2264 1036.75 32.3363 1035.82 33.2716C1034.89 34.2069 1033.79 34.9492 1032.57 35.4557C1031.35 35.9622 1030.05 36.223 1028.73 36.223C1027.41 36.223 1026.1 35.9622 1024.89 35.4557C1023.67 34.9492 1022.56 34.2069 1021.64 33.2716C1020.71 32.3362 1019.97 31.2264 1019.47 30.0059C1018.98 28.7854 1018.72 27.4784 1018.73 26.1601C1018.78 23.5395 1019.85 21.0416 1021.72 19.2045C1023.59 17.3673 1026.11 16.3379 1028.73 16.3379C1031.35 16.3379 1033.86 17.3673 1035.73 19.2045C1037.6 21.0416 1038.68 23.5395 1038.72 26.1601H1038.72ZM1038.72 26.1601L1049.29 26.1601M1049.29 26.1601L1049.29 33.8709" stroke="black" stroke-width="3.5" stroke-linecap="round" stroke-linejoin="round"/>
<path d="M1124.6 9.33332C1124.6 6.75599 1126.69 4.66666 1129.26 4.66666C1131.84 4.66666 1133.93 6.75599 1133.93 9.33332V12.8333C1133.93 13.4777 1134.45 14 1135.1 14H1144.43C1145.07 14 1145.6 14.5223 1145.6 15.1667V24.5C1145.6 25.1443 1146.12 25.6667 1146.76 25.6667H1150.26C1152.84 25.6667 1154.93 27.756 1154.93 30.3333C1154.93 32.9107 1152.84 35 1150.26 35H1146.76C1146.12 35 1145.6 35.5223 1145.6 36.1667V45.5C1145.6 46.1443 1145.07 46.6667 1144.43 46.6667H1135.1C1134.45 46.6667 1133.93 46.1443 1133.93 45.5V42C1133.93 39.4227 1131.84 37.3333 1129.26 37.3333C1126.69 37.3333 1124.6 39.4227 1124.6 42V45.5C1124.6 46.1443 1124.07 46.6667 1123.43 46.6667H1114.1C1113.45 46.6667 1112.93 46.1443 1112.93 45.5V36.1667C1112.93 35.5223 1113.45 35 1114.1 35H1117.6C1120.17 35 1122.26 32.9107 1122.26 30.3333C1122.26 27.756 1120.17 25.6667 1117.6 25.6667H1114.1C1113.45 25.6667 1112.93 25.1443 1112.93 24.5V15.1667C1112.93 14.5223 1113.45 14 1114.1 14H1123.43C1124.07 14 1124.6 13.4777 1124.6 12.8333V9.33332Z" stroke="black" stroke-width="3.5"/>
<path d="M1237.95 32.2738C1239.68 31.7551 1241.2 30.7493 1242.34 29.4159C1243.75 27.7823 1244.6 25.657 1244.6 23.3333C1244.6 18.1787 1240.42 14 1235.26 14C1232.92 14 1230.78 14.862 1229.14 16.286C1227.72 17.5235 1226.67 19.1853 1226.21 21.0745" stroke="black" stroke-width="3.5"/>
<path d="M1223.37 42.389L1223.37 44.139L1223.37 44.139L1223.37 42.389ZM1223.4 42.3889V40.6389L1223.39 40.6389L1223.4 42.3889ZM1223.34 42.3889L1223.35 40.6389H1223.34V42.3889ZM1233.17 42.389L1233.17 44.139H1233.17V42.389ZM1233.14 42.3889L1233.14 40.6389H1233.14V42.3889ZM1234.78 30.1223L1235.24 28.4313L1234.78 30.1223ZM1211.78 42.3889L1211.78 40.6389L1211.78 42.3889ZM1223.37 44.139L1223.4 44.1389L1223.39 40.6389L1223.37 40.639L1223.37 44.139ZM1223.34 44.1389L1223.37 44.139L1223.37 40.639L1223.35 40.6389L1223.34 44.1389ZM1211.78 44.1389H1223.34V40.6389H1211.78V44.1389ZM1202.01 34.368C1202.01 39.7643 1206.39 44.1389 1211.78 44.1389L1211.78 40.6389C1208.32 40.6389 1205.51 37.8313 1205.51 34.368H1202.01ZM1211.78 24.5972C1206.39 24.5972 1202.01 28.9718 1202.01 34.368H1205.51C1205.51 30.9047 1208.32 28.0972 1211.78 28.0972V24.5972ZM1213.3 24.7144C1212.81 24.6371 1212.3 24.5972 1211.78 24.5972V28.0972C1212.12 28.0972 1212.44 28.123 1212.76 28.1725L1213.3 24.7144ZM1223.37 19.25C1219.01 19.25 1215.18 21.4928 1212.96 24.8793L1215.88 26.7982C1217.48 24.3565 1220.24 22.75 1223.37 22.75V19.25ZM1235.44 28.674C1234.09 23.2616 1229.2 19.25 1223.37 19.25V22.75C1227.56 22.75 1231.08 25.6306 1232.05 29.5211L1235.44 28.674ZM1241.16 36.1506C1241.16 32.4498 1238.65 29.3408 1235.24 28.4313L1234.33 31.8132C1236.25 32.3244 1237.66 34.0751 1237.66 36.1506H1241.16ZM1233.17 44.139C1237.59 44.139 1241.16 40.5625 1241.16 36.1506H1237.66C1237.66 38.6295 1235.65 40.639 1233.17 40.639V44.139ZM1233.13 44.1389L1233.17 44.139L1233.18 40.6391L1233.14 40.6389L1233.13 44.1389ZM1223.4 44.1389H1233.14V40.6389H1223.4V44.1389ZM1212.76 28.1725C1213.95 28.358 1215.19 27.8532 1215.88 26.7982L1212.96 24.8793C1213.05 24.7371 1213.19 24.6971 1213.3 24.7144L1212.76 28.1725ZM1232.05 29.5211C1232.34 30.6971 1233.27 31.5301 1234.33 31.8132L1235.24 28.4313C1235.27 28.4413 1235.31 28.4612 1235.35 28.4956C1235.38 28.5315 1235.42 28.591 1235.44 28.674L1232.05 29.5211ZM1213.53 42.3889C1213.53 41.4482 1212.78 40.6389 1211.78 40.6389L1211.78 44.1389C1210.79 44.1389 1210.03 43.3296 1210.03 42.3889H1213.53ZM1211.78 40.6389C1212.75 40.6389 1213.53 41.4224 1213.53 42.3889H1210.03C1210.03 43.3554 1210.82 44.1389 1211.78 44.1389V40.6389Z" fill="black"/>
</g>
<defs>
<clipPath id="clip0_126_855">
<rect width="1251.6" height="56.2024" fill="white"/>
</clipPath>
</defs>
</svg>
