<svg width="482" height="322" viewBox="0 0 482 322" fill="none" xmlns="http://www.w3.org/2000/svg">
<rect x="1" y="1" width="480" height="320" rx="8" fill="#707070"/>
<path fill-rule="evenodd" clip-rule="evenodd" d="M257.999 147C258.755 147.453 258.755 148.547 257.999 149L226.434 167.94C225.656 168.406 224.667 167.846 224.667 166.939V129.061C224.667 128.154 225.656 127.594 226.434 128.06L257.999 147Z" fill="white" stroke="white" stroke-width="2" stroke-linejoin="round"/>
<rect x="1" y="1" width="480" height="320" rx="8" stroke="#707070" stroke-width="2"/>
<path d="M1 284H481V310C481 312.857 480.998 314.899 480.789 316.45C480.584 317.973 480.197 318.874 479.536 319.536C478.874 320.197 477.973 320.584 476.45 320.789C474.899 320.998 472.857 321 470 321H12C9.1433 321 7.10138 320.998 5.54962 320.789C4.02662 320.584 3.12638 320.197 2.46447 319.536C1.80256 318.874 1.41551 317.973 1.21075 316.45C1.00212 314.899 1 312.857 1 310V284Z" fill="white"/>
<path fill-rule="evenodd" clip-rule="evenodd" d="M29.2854 302.071C29.6091 302.265 29.6091 302.735 29.2854 302.929L15.7572 311.046C15.424 311.246 15 311.006 15 310.617L15 294.383C15 293.994 15.424 293.754 15.7572 293.954L29.2854 302.071Z" stroke="black" stroke-width="1.5" stroke-linejoin="round"/>
<g clip-path="url(#clip0_2_171)">
<rect x="42" y="298.5" width="231" height="8" rx="4" fill="#C0C0C0"/>
<rect x="42" y="298.5" width="48" height="8" rx="4" fill="black"/>
<circle cx="90" cy="302.5" r="9" fill="white" stroke="black" stroke-width="2"/>
</g>
<path d="M289.5 302.648C289.5 304.341 289.211 305.599 288.633 306.422C288.055 307.245 287.151 307.656 285.922 307.656C284.708 307.656 283.81 307.255 283.227 306.453C282.643 305.646 282.341 304.443 282.32 302.844V300.914C282.32 299.242 282.609 298 283.188 297.188C283.766 296.375 284.672 295.969 285.906 295.969C287.13 295.969 288.031 296.362 288.609 297.148C289.188 297.93 289.484 299.138 289.5 300.773V302.648ZM288.055 300.672C288.055 299.448 287.883 298.557 287.539 298C287.195 297.438 286.651 297.156 285.906 297.156C285.167 297.156 284.628 297.435 284.289 297.992C283.951 298.549 283.776 299.406 283.766 300.562V302.875C283.766 304.104 283.943 305.013 284.297 305.602C284.656 306.185 285.198 306.477 285.922 306.477C286.635 306.477 287.164 306.201 287.508 305.648C287.857 305.096 288.039 304.227 288.055 303.039V300.672ZM298.484 302.648C298.484 304.341 298.195 305.599 297.617 306.422C297.039 307.245 296.135 307.656 294.906 307.656C293.693 307.656 292.794 307.255 292.211 306.453C291.628 305.646 291.326 304.443 291.305 302.844V300.914C291.305 299.242 291.594 298 292.172 297.188C292.75 296.375 293.656 295.969 294.891 295.969C296.115 295.969 297.016 296.362 297.594 297.148C298.172 297.93 298.469 299.138 298.484 300.773V302.648ZM297.039 300.672C297.039 299.448 296.867 298.557 296.523 298C296.18 297.438 295.635 297.156 294.891 297.156C294.151 297.156 293.612 297.435 293.273 297.992C292.935 298.549 292.76 299.406 292.75 300.562V302.875C292.75 304.104 292.927 305.013 293.281 305.602C293.641 306.185 294.182 306.477 294.906 306.477C295.62 306.477 296.148 306.201 296.492 305.648C296.841 305.096 297.023 304.227 297.039 303.039V300.672ZM300.438 306.742C300.438 306.492 300.51 306.284 300.656 306.117C300.807 305.951 301.031 305.867 301.328 305.867C301.625 305.867 301.849 305.951 302 306.117C302.156 306.284 302.234 306.492 302.234 306.742C302.234 306.982 302.156 307.182 302 307.344C301.849 307.505 301.625 307.586 301.328 307.586C301.031 307.586 300.807 307.505 300.656 307.344C300.51 307.182 300.438 306.982 300.438 306.742ZM300.445 299.844C300.445 299.594 300.518 299.385 300.664 299.219C300.815 299.052 301.039 298.969 301.336 298.969C301.633 298.969 301.857 299.052 302.008 299.219C302.164 299.385 302.242 299.594 302.242 299.844C302.242 300.083 302.164 300.284 302.008 300.445C301.857 300.607 301.633 300.688 301.336 300.688C301.039 300.688 300.815 300.607 300.664 300.445C300.518 300.284 300.445 300.083 300.445 299.844ZM311.664 307.5H304.211V306.461L308.148 302.086C308.732 301.424 309.133 300.888 309.352 300.477C309.576 300.06 309.688 299.63 309.688 299.188C309.688 298.594 309.508 298.107 309.148 297.727C308.789 297.346 308.31 297.156 307.711 297.156C306.992 297.156 306.432 297.362 306.031 297.773C305.635 298.18 305.438 298.747 305.438 299.477H303.992C303.992 298.43 304.328 297.583 305 296.938C305.677 296.292 306.581 295.969 307.711 295.969C308.768 295.969 309.604 296.247 310.219 296.805C310.833 297.357 311.141 298.094 311.141 299.016C311.141 300.135 310.427 301.469 309 303.016L305.953 306.32H311.664V307.5ZM320.328 302.648C320.328 304.341 320.039 305.599 319.461 306.422C318.883 307.245 317.979 307.656 316.75 307.656C315.536 307.656 314.638 307.255 314.055 306.453C313.471 305.646 313.169 304.443 313.148 302.844V300.914C313.148 299.242 313.438 298 314.016 297.188C314.594 296.375 315.5 295.969 316.734 295.969C317.958 295.969 318.859 296.362 319.438 297.148C320.016 297.93 320.312 299.138 320.328 300.773V302.648ZM318.883 300.672C318.883 299.448 318.711 298.557 318.367 298C318.023 297.438 317.479 297.156 316.734 297.156C315.995 297.156 315.456 297.435 315.117 297.992C314.779 298.549 314.604 299.406 314.594 300.562V302.875C314.594 304.104 314.771 305.013 315.125 305.602C315.484 306.185 316.026 306.477 316.75 306.477C317.464 306.477 317.992 306.201 318.336 305.648C318.685 305.096 318.867 304.227 318.883 303.039V300.672ZM326.586 308.477H325.344L330.094 296.125H331.328L326.586 308.477ZM343.844 302.648C343.844 304.341 343.555 305.599 342.977 306.422C342.398 307.245 341.495 307.656 340.266 307.656C339.052 307.656 338.154 307.255 337.57 306.453C336.987 305.646 336.685 304.443 336.664 302.844V300.914C336.664 299.242 336.953 298 337.531 297.188C338.109 296.375 339.016 295.969 340.25 295.969C341.474 295.969 342.375 296.362 342.953 297.148C343.531 297.93 343.828 299.138 343.844 300.773V302.648ZM342.398 300.672C342.398 299.448 342.227 298.557 341.883 298C341.539 297.438 340.995 297.156 340.25 297.156C339.51 297.156 338.971 297.435 338.633 297.992C338.294 298.549 338.12 299.406 338.109 300.562V302.875C338.109 304.104 338.286 305.013 338.641 305.602C339 306.185 339.542 306.477 340.266 306.477C340.979 306.477 341.508 306.201 341.852 305.648C342.201 305.096 342.383 304.227 342.398 303.039V300.672ZM350.445 307.5H348.992V297.867L346.078 298.938V297.625L350.219 296.07H350.445V307.5ZM354.781 306.742C354.781 306.492 354.854 306.284 355 306.117C355.151 305.951 355.375 305.867 355.672 305.867C355.969 305.867 356.193 305.951 356.344 306.117C356.5 306.284 356.578 306.492 356.578 306.742C356.578 306.982 356.5 307.182 356.344 307.344C356.193 307.505 355.969 307.586 355.672 307.586C355.375 307.586 355.151 307.505 355 307.344C354.854 307.182 354.781 306.982 354.781 306.742ZM354.789 299.844C354.789 299.594 354.862 299.385 355.008 299.219C355.159 299.052 355.383 298.969 355.68 298.969C355.977 298.969 356.201 299.052 356.352 299.219C356.508 299.385 356.586 299.594 356.586 299.844C356.586 300.083 356.508 300.284 356.352 300.445C356.201 300.607 355.977 300.688 355.68 300.688C355.383 300.688 355.159 300.607 355.008 300.445C354.862 300.284 354.789 300.083 354.789 299.844ZM365.688 302.648C365.688 304.341 365.398 305.599 364.82 306.422C364.242 307.245 363.339 307.656 362.109 307.656C360.896 307.656 359.997 307.255 359.414 306.453C358.831 305.646 358.529 304.443 358.508 302.844V300.914C358.508 299.242 358.797 298 359.375 297.188C359.953 296.375 360.859 295.969 362.094 295.969C363.318 295.969 364.219 296.362 364.797 297.148C365.375 297.93 365.672 299.138 365.688 300.773V302.648ZM364.242 300.672C364.242 299.448 364.07 298.557 363.727 298C363.383 297.438 362.839 297.156 362.094 297.156C361.354 297.156 360.815 297.435 360.477 297.992C360.138 298.549 359.964 299.406 359.953 300.562V302.875C359.953 304.104 360.13 305.013 360.484 305.602C360.844 306.185 361.385 306.477 362.109 306.477C362.823 306.477 363.352 306.201 363.695 305.648C364.044 305.096 364.227 304.227 364.242 303.039V300.672ZM374.672 302.648C374.672 304.341 374.383 305.599 373.805 306.422C373.227 307.245 372.323 307.656 371.094 307.656C369.88 307.656 368.982 307.255 368.398 306.453C367.815 305.646 367.513 304.443 367.492 302.844V300.914C367.492 299.242 367.781 298 368.359 297.188C368.938 296.375 369.844 295.969 371.078 295.969C372.302 295.969 373.203 296.362 373.781 297.148C374.359 297.93 374.656 299.138 374.672 300.773V302.648ZM373.227 300.672C373.227 299.448 373.055 298.557 372.711 298C372.367 297.438 371.823 297.156 371.078 297.156C370.339 297.156 369.799 297.435 369.461 297.992C369.122 298.549 368.948 299.406 368.938 300.562V302.875C368.938 304.104 369.115 305.013 369.469 305.602C369.828 306.185 370.37 306.477 371.094 306.477C371.807 306.477 372.336 306.201 372.68 305.648C373.029 305.096 373.211 304.227 373.227 303.039V300.672Z" fill="black"/>
<path fill-rule="evenodd" clip-rule="evenodd" d="M396.146 295.354C396.461 295.039 397 295.262 397 295.707V309.293C397 309.738 396.461 309.961 396.146 309.646L392.146 305.646C392.053 305.553 391.926 305.5 391.793 305.5H387.5C387.224 305.5 387 305.276 387 305V300C387 299.724 387.224 299.5 387.5 299.5H391.793C391.926 299.5 392.053 299.447 392.146 299.354L396.146 295.354Z" stroke="black" stroke-width="1.5" stroke-linecap="round" stroke-linejoin="round"/>
<path d="M400 306.5C402.086 304.414 402.086 300.586 400 298.5" stroke="black" stroke-width="1.5" stroke-linecap="round"/>
<path d="M402 309.5C405.986 305.514 406.008 299.508 402 295.5" stroke="black" stroke-width="1.5" stroke-linecap="round"/>
<path d="M425.386 294.157L424.675 293.92V293.92L425.386 294.157ZM422.082 296.065L422.232 295.33V295.33L422.082 296.065ZM419.949 297.024L419.299 296.649H419.299L419.949 297.024ZM419.232 298.265L419.882 298.64H419.882L419.232 298.265ZM419.468 300.592L418.907 301.09H418.907L419.468 300.592ZM419.468 304.408L420.029 304.906H420.029L419.468 304.408ZM419.232 306.735L419.882 306.36L419.232 306.735ZM419.949 307.976L419.299 308.351H419.299L419.949 307.976ZM422.082 308.935L421.931 308.2H421.931L422.082 308.935ZM425.386 310.843L424.675 311.08L425.386 310.843ZM430.614 310.843L429.902 310.606V310.606L430.614 310.843ZM433.918 308.935L434.069 308.2L434.069 308.2L433.918 308.935ZM436.051 307.976L436.701 308.351V308.351L436.051 307.976ZM436.768 306.735L437.417 307.11V307.11L436.768 306.735ZM436.532 304.408L435.971 304.906L436.532 304.408ZM436.532 300.592L435.971 300.094L436.532 300.592ZM436.768 298.265L436.118 298.64V298.64L436.768 298.265ZM436.051 297.024L435.402 297.399V297.399L436.051 297.024ZM433.918 296.065L433.768 295.33L433.918 296.065ZM430.614 294.157L431.325 293.92L430.614 294.157ZM431.296 295.703L431.624 295.028L431.296 295.703ZM431.029 295.402L430.317 295.639L431.029 295.402ZM432.631 296.328L432.481 295.594L432.631 296.328ZM432.236 296.246L432.658 295.626L432.236 296.246ZM435.533 301.957L436.282 301.904L435.533 301.957ZM435.66 301.576L436.221 302.073L435.66 301.576ZM432.236 308.754L432.658 309.374L432.236 308.754ZM432.631 308.672L432.481 309.406L432.631 308.672ZM435.66 303.424L435.099 303.922L435.66 303.424ZM435.533 303.043L436.282 303.096L435.533 303.043ZM424.971 309.598L425.683 309.361L424.971 309.598ZM423.764 308.754L424.185 308.133L423.764 308.754ZM431.029 309.598L430.317 309.361L431.029 309.598ZM431.296 309.297L430.969 308.623L431.296 309.297ZM420.34 303.424L419.779 302.927L420.34 303.424ZM420.34 301.576L419.779 302.073L420.34 301.576ZM423.764 296.246L423.342 295.626L423.764 296.246ZM423.369 296.328L423.519 295.594L423.369 296.328ZM424.971 295.402L424.26 295.165L424.971 295.402ZM426.098 294.394C426.268 293.884 426.746 293.539 427.284 293.539V292.039C426.1 292.039 425.049 292.797 424.675 293.92L426.098 294.394ZM425.683 295.639L426.098 294.394L424.675 293.92L424.26 295.165L425.683 295.639ZM424.185 296.867C424.454 296.684 424.737 296.521 425.031 296.377L424.376 295.028C424.016 295.203 423.671 295.403 423.342 295.626L424.185 296.867ZM421.931 296.8L423.218 297.063L423.519 295.594L422.232 295.33L421.931 296.8ZM420.598 297.399C420.867 296.933 421.404 296.692 421.931 296.8L422.232 295.33C421.072 295.093 419.891 295.624 419.299 296.649L420.598 297.399ZM419.882 298.64L420.598 297.399L419.299 296.649L418.583 297.89L419.882 298.64ZM420.029 300.094C419.672 299.692 419.613 299.106 419.882 298.64L418.583 297.89C417.991 298.915 418.121 300.204 418.907 301.09L420.029 300.094ZM420.901 301.078L420.029 300.094L418.907 301.09L419.779 302.073L420.901 301.078ZM421.197 302.5C421.197 302.335 421.203 302.172 421.215 302.01L419.718 301.904C419.704 302.101 419.697 302.3 419.697 302.5H421.197ZM421.215 302.989C421.203 302.828 421.197 302.665 421.197 302.5H419.697C419.697 302.7 419.704 302.899 419.718 303.096L421.215 302.989ZM420.029 304.906L420.901 303.922L419.779 302.927L418.907 303.91L420.029 304.906ZM419.882 306.36C419.613 305.894 419.672 305.308 420.029 304.906L418.907 303.91C418.121 304.796 417.991 306.085 418.583 307.11L419.882 306.36ZM420.598 307.601L419.882 306.36L418.583 307.11L419.299 308.351L420.598 307.601ZM421.931 308.2C421.404 308.308 420.867 308.067 420.598 307.601L419.299 308.351C419.891 309.376 421.072 309.907 422.232 309.67L421.931 308.2ZM423.218 307.937L421.931 308.2L422.232 309.67L423.519 309.406L423.218 307.937ZM425.031 308.623C424.737 308.479 424.454 308.316 424.185 308.133L423.342 309.374C423.671 309.597 424.016 309.797 424.376 309.972L425.031 308.623ZM426.098 310.606L425.683 309.361L424.26 309.835L424.675 311.08L426.098 310.606ZM427.284 311.461C426.746 311.461 426.268 311.116 426.098 310.606L424.675 311.08C425.049 312.203 426.1 312.961 427.284 312.961V311.461ZM428.716 311.461H427.284V312.961H428.716V311.461ZM429.902 310.606C429.732 311.116 429.254 311.461 428.716 311.461V312.961C429.9 312.961 430.951 312.203 431.325 311.08L429.902 310.606ZM430.317 309.361L429.902 310.606L431.325 311.08L431.74 309.835L430.317 309.361ZM431.815 308.133C431.546 308.316 431.263 308.479 430.969 308.623L431.624 309.972C431.984 309.797 432.329 309.597 432.658 309.374L431.815 308.133ZM434.069 308.2L432.782 307.937L432.481 309.406L433.768 309.67L434.069 308.2ZM435.402 307.601C435.133 308.067 434.596 308.308 434.069 308.2L433.768 309.67C434.928 309.907 436.109 309.376 436.701 308.351L435.402 307.601ZM436.118 306.36L435.402 307.601L436.701 308.351L437.417 307.11L436.118 306.36ZM435.971 304.906C436.328 305.308 436.387 305.894 436.118 306.36L437.417 307.11C438.009 306.085 437.879 304.796 437.093 303.91L435.971 304.906ZM435.099 303.922L435.971 304.906L437.093 303.91L436.221 302.927L435.099 303.922ZM434.803 302.5C434.803 302.665 434.797 302.828 434.785 302.99L436.282 303.096C436.296 302.899 436.303 302.7 436.303 302.5H434.803ZM434.785 302.01C434.797 302.172 434.803 302.335 434.803 302.5H436.303C436.303 302.3 436.296 302.101 436.282 301.904L434.785 302.01ZM435.971 300.094L435.099 301.078L436.221 302.073L437.093 301.09L435.971 300.094ZM436.118 298.64C436.387 299.106 436.328 299.692 435.971 300.094L437.093 301.09C437.879 300.204 438.009 298.915 437.417 297.89L436.118 298.64ZM435.402 297.399L436.118 298.64L437.417 297.89L436.701 296.649L435.402 297.399ZM434.069 296.8C434.596 296.692 435.133 296.933 435.402 297.399L436.701 296.649C436.109 295.624 434.928 295.093 433.768 295.33L434.069 296.8ZM432.782 297.063L434.069 296.8L433.768 295.33L432.481 295.594L432.782 297.063ZM430.969 296.377C431.263 296.521 431.546 296.684 431.815 296.867L432.658 295.626C432.329 295.403 431.984 295.203 431.624 295.028L430.969 296.377ZM429.902 294.394L430.317 295.639L431.74 295.165L431.325 293.92L429.902 294.394ZM428.716 293.539C429.254 293.539 429.732 293.884 429.902 294.394L431.325 293.92C430.951 292.797 429.9 292.039 428.716 292.039V293.539ZM427.284 293.539H428.716V292.039H427.284V293.539ZM431.624 295.028C431.67 295.05 431.717 295.095 431.74 295.165L430.317 295.639C430.429 295.974 430.672 296.233 430.969 296.377L431.624 295.028ZM432.481 295.594C432.553 295.579 432.616 295.597 432.658 295.626L431.815 296.867C432.089 297.053 432.435 297.134 432.782 297.063L432.481 295.594ZM436.282 301.904C436.285 301.955 436.27 302.018 436.221 302.073L435.099 301.078C434.865 301.342 434.762 301.682 434.785 302.01L436.282 301.904ZM432.658 309.374C432.616 309.403 432.553 309.421 432.481 309.406L432.782 307.937C432.435 307.866 432.089 307.947 431.815 308.133L432.658 309.374ZM436.221 302.927C436.27 302.982 436.285 303.045 436.282 303.096L434.785 302.99C434.762 303.318 434.865 303.658 435.099 303.922L436.221 302.927ZM424.376 309.972C424.33 309.95 424.283 309.905 424.26 309.835L425.683 309.361C425.571 309.026 425.328 308.767 425.031 308.623L424.376 309.972ZM423.519 309.406C423.447 309.421 423.384 309.403 423.342 309.374L424.185 308.133C423.911 307.947 423.565 307.866 423.218 307.937L423.519 309.406ZM431.74 309.835C431.717 309.905 431.67 309.95 431.624 309.972L430.969 308.623C430.672 308.767 430.429 309.026 430.317 309.361L431.74 309.835ZM419.718 303.096C419.715 303.045 419.73 302.982 419.779 302.927L420.901 303.922C421.135 303.658 421.238 303.318 421.215 302.989L419.718 303.096ZM419.779 302.073C419.73 302.018 419.715 301.955 419.718 301.904L421.215 302.01C421.238 301.682 421.135 301.342 420.901 301.078L419.779 302.073ZM423.342 295.626C423.384 295.597 423.447 295.579 423.519 295.594L423.218 297.063C423.565 297.134 423.911 297.053 424.185 296.867L423.342 295.626ZM424.26 295.165C424.283 295.095 424.33 295.05 424.376 295.028L425.031 296.377C425.328 296.233 425.571 295.974 425.683 295.639L424.26 295.165Z" fill="black"/>
<path fill-rule="evenodd" clip-rule="evenodd" d="M428 305.5C429.657 305.5 431 304.157 431 302.5C431 300.843 429.657 299.5 428 299.5C426.343 299.5 425 300.843 425 302.5C425 304.157 426.343 305.5 428 305.5Z" stroke="black" stroke-width="1.5"/>
<path d="M463 294.5H468V299.5" stroke="black" stroke-width="1.5" stroke-linecap="round" stroke-linejoin="round"/>
<path d="M457 310.5H452V305.5" stroke="black" stroke-width="1.5" stroke-linecap="round" stroke-linejoin="round"/>
<path d="M468 294.5L462 300.5" stroke="black" stroke-width="1.5" stroke-linecap="round" stroke-linejoin="round"/>
<path d="M452 310.5L458 304.5" stroke="black" stroke-width="1.5" stroke-linecap="round" stroke-linejoin="round"/>
<path d="M1 284H481V310C481 312.857 480.998 314.899 480.789 316.45C480.584 317.973 480.197 318.874 479.536 319.536C478.874 320.197 477.973 320.584 476.45 320.789C474.899 320.998 472.857 321 470 321H12C9.1433 321 7.10138 320.998 5.54962 320.789C4.02662 320.584 3.12638 320.197 2.46447 319.536C1.80256 318.874 1.41551 317.973 1.21075 316.45C1.00212 314.899 1 312.857 1 310V284Z" stroke="#C0C0C0" stroke-width="2"/>
<defs>
<clipPath id="clip0_2_171">
<rect x="42" y="290.5" width="231" height="24" rx="12" fill="white"/>
</clipPath>
</defs>
</svg>
